<?xml version="1.0" encoding="UTF-8" standalone="no"?>
<!DOCTYPE svg PUBLIC "-//W3C//DTD SVG 1.1//EN"
 "http://www.w3.org/Graphics/SVG/1.1/DTD/svg11.dtd">
<!-- Generated by graphviz version 2.42.4 (0)
 -->
<!-- Pages: 1 -->
<svg width="3588pt" height="692pt"
 viewBox="0.00 0.00 3588.28 692.00" xmlns="http://www.w3.org/2000/svg" xmlns:xlink="http://www.w3.org/1999/xlink">
<g id="graph0" class="graph" transform="scale(1 1) rotate(0) translate(4 688)">
<polygon fill="white" stroke="transparent" points="-4,4 -4,-688 3584.28,-688 3584.28,4 -4,4"/>
<!-- 0 -->
<g id="node1" class="node">
<title>0</title>
<ellipse fill="none" stroke="black" cx="265.09" cy="-666" rx="37.89" ry="18"/>
<text text-anchor="middle" x="265.09" y="-662.3" font-family="Times,serif" font-size="14.00">_start</text>
</g>
<!-- 1 -->
<g id="node2" class="node">
<title>1</title>
<ellipse fill="none" stroke="black" cx="265.09" cy="-594" rx="115.08" ry="18"/>
<text text-anchor="middle" x="265.09" y="-590.3" font-family="Times,serif" font-size="14.00">__libc_start_main_impl</text>
</g>
<!-- 0&#45;&gt;1 -->
<g id="edge1" class="edge">
<title>0&#45;&gt;1</title>
<path fill="none" stroke="black" d="M265.09,-647.7C265.09,-639.98 265.09,-630.71 265.09,-622.11"/>
<polygon fill="black" stroke="black" points="268.59,-622.1 265.09,-612.1 261.59,-622.1 268.59,-622.1"/>
</g>
<!-- 2 -->
<g id="node3" class="node">
<title>2</title>
<ellipse fill="none" stroke="black" cx="161.09" cy="-522" rx="110.48" ry="18"/>
<text text-anchor="middle" x="161.09" y="-518.3" font-family="Times,serif" font-size="14.00">__libc_start_call_main</text>
</g>
<!-- 1&#45;&gt;2 -->
<g id="edge2" class="edge">
<title>1&#45;&gt;2</title>
<path fill="none" stroke="black" d="M240.45,-576.41C226.69,-567.15 209.36,-555.49 194.41,-545.42"/>
<polygon fill="black" stroke="black" points="196.17,-542.39 185.92,-539.71 192.26,-548.2 196.17,-542.39"/>
</g>
<!-- 15 -->
<g id="node16" class="node">
<title>15</title>
<ellipse fill="none" stroke="black" cx="369.09" cy="-522" rx="79.09" ry="18"/>
<text text-anchor="middle" x="369.09" y="-518.3" font-family="Times,serif" font-size="14.00">__libc_init_first</text>
</g>
<!-- 1&#45;&gt;15 -->
<g id="edge14" class="edge">
<title>1&#45;&gt;15</title>
<path fill="none" stroke="black" d="M289.74,-576.41C303.7,-567.02 321.33,-555.15 336.43,-544.98"/>
<polygon fill="black" stroke="black" points="338.64,-547.72 344.98,-539.23 334.73,-541.91 338.64,-547.72"/>
</g>
<!-- 3 -->
<g id="node4" class="node">
<title>3</title>
<ellipse fill="none" stroke="black" cx="161.09" cy="-450" rx="33.6" ry="18"/>
<text text-anchor="middle" x="161.09" y="-446.3" font-family="Times,serif" font-size="14.00">main</text>
</g>
<!-- 2&#45;&gt;3 -->
<g id="edge3" class="edge">
<title>2&#45;&gt;3</title>
<path fill="none" stroke="black" d="M161.09,-503.7C161.09,-495.98 161.09,-486.71 161.09,-478.11"/>
<polygon fill="black" stroke="black" points="164.59,-478.1 161.09,-468.1 157.59,-478.1 164.59,-478.1"/>
</g>
<!-- 4 -->
<g id="node5" class="node">
<title>4</title>
<ellipse fill="none" stroke="black" cx="161.09" cy="-378" rx="82.59" ry="18"/>
<text text-anchor="middle" x="161.09" y="-374.3" font-family="Times,serif" font-size="14.00">benchmark_init</text>
</g>
<!-- 3&#45;&gt;4 -->
<g id="edge4" class="edge">
<title>3&#45;&gt;4</title>
<path fill="none" stroke="black" d="M161.09,-431.7C161.09,-423.98 161.09,-414.71 161.09,-406.11"/>
<polygon fill="black" stroke="black" points="164.59,-406.1 161.09,-396.1 157.59,-406.1 164.59,-406.1"/>
</g>
<!-- 5 -->
<g id="node6" class="node">
<title>5</title>
<ellipse fill="none" stroke="black" cx="87.09" cy="-306" rx="55.49" ry="18"/>
<text text-anchor="middle" x="87.09" y="-302.3" font-family="Times,serif" font-size="14.00">__opendir</text>
</g>
<!-- 4&#45;&gt;5 -->
<g id="edge5" class="edge">
<title>4&#45;&gt;5</title>
<path fill="none" stroke="black" d="M143.18,-360.05C133.77,-351.16 122.1,-340.11 111.84,-330.41"/>
<polygon fill="black" stroke="black" points="114,-327.64 104.33,-323.31 109.19,-332.72 114,-327.64"/>
</g>
<!-- 18 -->
<g id="node19" class="node">
<title>18</title>
<ellipse fill="none" stroke="black" cx="234.09" cy="-306" rx="73.39" ry="18"/>
<text text-anchor="middle" x="234.09" y="-302.3" font-family="Times,serif" font-size="14.00">rand_gen_init</text>
</g>
<!-- 4&#45;&gt;18 -->
<g id="edge17" class="edge">
<title>4&#45;&gt;18</title>
<path fill="none" stroke="black" d="M178.76,-360.05C187.91,-351.28 199.23,-340.43 209.24,-330.83"/>
<polygon fill="black" stroke="black" points="211.79,-333.24 216.58,-323.79 206.94,-328.18 211.79,-333.24"/>
</g>
<!-- 6 -->
<g id="node7" class="node">
<title>6</title>
<ellipse fill="none" stroke="black" cx="87.09" cy="-234" rx="87.18" ry="18"/>
<text text-anchor="middle" x="87.09" y="-230.3" font-family="Times,serif" font-size="14.00">__open_nocancel</text>
</g>
<!-- 5&#45;&gt;6 -->
<g id="edge6" class="edge">
<title>5&#45;&gt;6</title>
<path fill="none" stroke="black" d="M87.09,-287.7C87.09,-279.98 87.09,-270.71 87.09,-262.11"/>
<polygon fill="black" stroke="black" points="90.59,-262.1 87.09,-252.1 83.59,-262.1 90.59,-262.1"/>
</g>
<!-- 7 -->
<g id="node8" class="node">
<title>7</title>
<ellipse fill="none" stroke="black" cx="1637.09" cy="-666" rx="83.39" ry="18"/>
<text text-anchor="middle" x="1637.09" y="-662.3" font-family="Times,serif" font-size="14.00">benchmark_run</text>
</g>
<!-- 8 -->
<g id="node9" class="node">
<title>8</title>
<ellipse fill="none" stroke="black" cx="1637.09" cy="-594" rx="87.99" ry="18"/>
<text text-anchor="middle" x="1637.09" y="-590.3" font-family="Times,serif" font-size="14.00">benchmark_read</text>
</g>
<!-- 7&#45;&gt;8 -->
<g id="edge7" class="edge">
<title>7&#45;&gt;8</title>
<path fill="none" stroke="black" d="M1637.09,-647.7C1637.09,-639.98 1637.09,-630.71 1637.09,-622.11"/>
<polygon fill="black" stroke="black" points="1640.59,-622.1 1637.09,-612.1 1633.59,-622.1 1640.59,-622.1"/>
</g>
<!-- 9 -->
<g id="node10" class="node">
<title>9</title>
<ellipse fill="none" stroke="black" cx="995.09" cy="-522" rx="48.19" ry="18"/>
<text text-anchor="middle" x="995.09" y="-518.3" font-family="Times,serif" font-size="14.00">snprintf</text>
</g>
<!-- 8&#45;&gt;9 -->
<g id="edge8" class="edge">
<title>8&#45;&gt;9</title>
<path fill="none" stroke="black" d="M1561.56,-584.76C1430.93,-570.52 1165.77,-541.61 1050.59,-529.05"/>
<polygon fill="black" stroke="black" points="1050.89,-525.56 1040.57,-527.96 1050.14,-532.52 1050.89,-525.56"/>
</g>
<!-- 22 -->
<g id="node23" class="node">
<title>22</title>
<ellipse fill="none" stroke="black" cx="1793.09" cy="-522" rx="66.89" ry="18"/>
<text text-anchor="middle" x="1793.09" y="-518.3" font-family="Times,serif" font-size="14.00">sqlite3_step</text>
</g>
<!-- 8&#45;&gt;22 -->
<g id="edge21" class="edge">
<title>8&#45;&gt;22</title>
<path fill="none" stroke="black" d="M1672.1,-577.29C1695.52,-566.78 1726.46,-552.9 1751.19,-541.8"/>
<polygon fill="black" stroke="black" points="1752.64,-544.99 1760.33,-537.7 1749.78,-538.6 1752.64,-544.99"/>
</g>
<!-- 31 -->
<g id="node32" class="node">
<title>31</title>
<ellipse fill="none" stroke="black" cx="1973.09" cy="-522" rx="94.78" ry="18"/>
<text text-anchor="middle" x="1973.09" y="-518.3" font-family="Times,serif" font-size="14.00">finished_single_op</text>
</g>
<!-- 8&#45;&gt;31 -->
<g id="edge30" class="edge">
<title>8&#45;&gt;31</title>
<path fill="none" stroke="black" d="M1696.39,-580.65C1753.76,-568.69 1840.78,-550.56 1901.88,-537.84"/>
<polygon fill="black" stroke="black" points="1902.76,-541.23 1911.83,-535.76 1901.33,-534.38 1902.76,-541.23"/>
</g>
<!-- 39 -->
<g id="node40" class="node">
<title>39</title>
<ellipse fill="none" stroke="black" cx="1434.09" cy="-522" rx="114.28" ry="18"/>
<text text-anchor="middle" x="1434.09" y="-518.3" font-family="Times,serif" font-size="14.00">sqlite3_clear_bindings</text>
</g>
<!-- 8&#45;&gt;39 -->
<g id="edge39" class="edge">
<title>8&#45;&gt;39</title>
<path fill="none" stroke="black" d="M1594.04,-578.15C1563.32,-567.56 1521.77,-553.23 1488.71,-541.83"/>
<polygon fill="black" stroke="black" points="1489.79,-538.5 1479.19,-538.55 1487.5,-545.12 1489.79,-538.5"/>
</g>
<!-- 41 -->
<g id="node42" class="node">
<title>41</title>
<ellipse fill="none" stroke="black" cx="1637.09" cy="-522" rx="70.69" ry="18"/>
<text text-anchor="middle" x="1637.09" y="-518.3" font-family="Times,serif" font-size="14.00">sqlite3_reset</text>
</g>
<!-- 8&#45;&gt;41 -->
<g id="edge41" class="edge">
<title>8&#45;&gt;41</title>
<path fill="none" stroke="black" d="M1637.09,-575.7C1637.09,-567.98 1637.09,-558.71 1637.09,-550.11"/>
<polygon fill="black" stroke="black" points="1640.59,-550.1 1637.09,-540.1 1633.59,-550.1 1640.59,-550.1"/>
</g>
<!-- 42 -->
<g id="node43" class="node">
<title>42</title>
<ellipse fill="none" stroke="black" cx="1250.09" cy="-522" rx="51.19" ry="18"/>
<text text-anchor="middle" x="1250.09" y="-518.3" font-family="Times,serif" font-size="14.00">bindText</text>
</g>
<!-- 8&#45;&gt;42 -->
<g id="edge44" class="edge">
<title>8&#45;&gt;42</title>
<path fill="none" stroke="black" d="M1565.11,-583.63C1498.77,-574.44 1397.76,-559.06 1311.09,-540 1306.75,-539.04 1302.25,-537.97 1297.76,-536.83"/>
<polygon fill="black" stroke="black" points="1298.56,-533.42 1288,-534.26 1296.78,-540.19 1298.56,-533.42"/>
</g>
<!-- 68 -->
<g id="node69" class="node">
<title>68</title>
<ellipse fill="none" stroke="black" cx="2178.09" cy="-522" rx="91.78" ry="18"/>
<text text-anchor="middle" x="2178.09" y="-518.3" font-family="Times,serif" font-size="14.00">sqlite3_bind_blob</text>
</g>
<!-- 8&#45;&gt;68 -->
<g id="edge75" class="edge">
<title>8&#45;&gt;68</title>
<path fill="none" stroke="black" d="M1713.15,-584.93C1800.98,-575.37 1949.73,-558.38 2077.09,-540 2085.25,-538.82 2093.77,-537.51 2102.24,-536.16"/>
<polygon fill="black" stroke="black" points="2102.84,-539.61 2112.15,-534.56 2101.72,-532.7 2102.84,-539.61"/>
</g>
<!-- 10 -->
<g id="node11" class="node">
<title>10</title>
<ellipse fill="none" stroke="black" cx="848.09" cy="-450" rx="102.88" ry="18"/>
<text text-anchor="middle" x="848.09" y="-446.3" font-family="Times,serif" font-size="14.00">__vsnprintf_internal</text>
</g>
<!-- 9&#45;&gt;10 -->
<g id="edge9" class="edge">
<title>9&#45;&gt;10</title>
<path fill="none" stroke="black" d="M966.4,-507.34C945.01,-497.15 915.43,-483.07 891.2,-471.53"/>
<polygon fill="black" stroke="black" points="892.4,-468.22 881.86,-467.08 889.39,-474.54 892.4,-468.22"/>
</g>
<!-- 11 -->
<g id="node12" class="node">
<title>11</title>
<ellipse fill="none" stroke="black" cx="848.09" cy="-378" rx="77.99" ry="18"/>
<text text-anchor="middle" x="848.09" y="-374.3" font-family="Times,serif" font-size="14.00">__printf_buffer</text>
</g>
<!-- 10&#45;&gt;11 -->
<g id="edge10" class="edge">
<title>10&#45;&gt;11</title>
<path fill="none" stroke="black" d="M848.09,-431.7C848.09,-423.98 848.09,-414.71 848.09,-406.11"/>
<polygon fill="black" stroke="black" points="851.59,-406.1 848.09,-396.1 844.59,-406.1 851.59,-406.1"/>
</g>
<!-- 12 -->
<g id="node13" class="node">
<title>12</title>
<ellipse fill="none" stroke="black" cx="647.09" cy="-378" rx="104.78" ry="18"/>
<text text-anchor="middle" x="647.09" y="-374.3" font-family="Times,serif" font-size="14.00">__printf_buffer_done</text>
</g>
<!-- 10&#45;&gt;12 -->
<g id="edge11" class="edge">
<title>10&#45;&gt;12</title>
<path fill="none" stroke="black" d="M803.98,-433.64C773.72,-423.1 733.36,-409.04 701.16,-397.83"/>
<polygon fill="black" stroke="black" points="702.04,-394.43 691.45,-394.45 699.74,-401.04 702.04,-394.43"/>
</g>
<!-- 13 -->
<g id="node14" class="node">
<title>13</title>
<ellipse fill="none" stroke="black" cx="435.09" cy="-306" rx="109.68" ry="18"/>
<text text-anchor="middle" x="435.09" y="-302.3" font-family="Times,serif" font-size="14.00">__printf_buffer_pad_1</text>
</g>
<!-- 11&#45;&gt;13 -->
<g id="edge12" class="edge">
<title>11&#45;&gt;13</title>
<path fill="none" stroke="black" d="M791.05,-365.58C781.07,-363.66 770.79,-361.73 761.09,-360 680.29,-345.54 587.92,-330.68 522.18,-320.39"/>
<polygon fill="black" stroke="black" points="522.7,-316.93 512.28,-318.84 521.61,-323.84 522.7,-316.93"/>
</g>
<!-- 14 -->
<g id="node15" class="node">
<title>14</title>
<ellipse fill="none" stroke="black" cx="669.09" cy="-306" rx="106.68" ry="18"/>
<text text-anchor="middle" x="669.09" y="-302.3" font-family="Times,serif" font-size="14.00">__printf_buffer_write</text>
</g>
<!-- 11&#45;&gt;14 -->
<g id="edge13" class="edge">
<title>11&#45;&gt;14</title>
<path fill="none" stroke="black" d="M810.13,-362.15C783.58,-351.77 747.84,-337.8 718.99,-326.51"/>
<polygon fill="black" stroke="black" points="720.07,-323.18 709.49,-322.8 717.53,-329.7 720.07,-323.18"/>
</g>
<!-- 21 -->
<g id="node22" class="node">
<title>21</title>
<ellipse fill="none" stroke="black" cx="854.09" cy="-306" rx="60.39" ry="18"/>
<text text-anchor="middle" x="854.09" y="-302.3" font-family="Times,serif" font-size="14.00">_itoa_word</text>
</g>
<!-- 11&#45;&gt;21 -->
<g id="edge20" class="edge">
<title>11&#45;&gt;21</title>
<path fill="none" stroke="black" d="M849.58,-359.7C850.24,-351.98 851.03,-342.71 851.77,-334.11"/>
<polygon fill="black" stroke="black" points="855.26,-334.37 852.63,-324.1 848.28,-333.77 855.26,-334.37"/>
</g>
<!-- 16 -->
<g id="node17" class="node">
<title>16</title>
<ellipse fill="none" stroke="black" cx="369.09" cy="-450" rx="108.58" ry="18"/>
<text text-anchor="middle" x="369.09" y="-446.3" font-family="Times,serif" font-size="14.00">_dl_non_dynamic_init</text>
</g>
<!-- 15&#45;&gt;16 -->
<g id="edge15" class="edge">
<title>15&#45;&gt;16</title>
<path fill="none" stroke="black" d="M369.09,-503.7C369.09,-495.98 369.09,-486.71 369.09,-478.11"/>
<polygon fill="black" stroke="black" points="372.59,-478.1 369.09,-468.1 365.59,-478.1 372.59,-478.1"/>
</g>
<!-- 17 -->
<g id="node18" class="node">
<title>17</title>
<ellipse fill="none" stroke="black" cx="369.09" cy="-378" rx="75.29" ry="18"/>
<text text-anchor="middle" x="369.09" y="-374.3" font-family="Times,serif" font-size="14.00">_dl_get_origin</text>
</g>
<!-- 16&#45;&gt;17 -->
<g id="edge16" class="edge">
<title>16&#45;&gt;17</title>
<path fill="none" stroke="black" d="M369.09,-431.7C369.09,-423.98 369.09,-414.71 369.09,-406.11"/>
<polygon fill="black" stroke="black" points="372.59,-406.1 369.09,-396.1 365.59,-406.1 372.59,-406.1"/>
</g>
<!-- 19 -->
<g id="node20" class="node">
<title>19</title>
<ellipse fill="none" stroke="black" cx="234.09" cy="-234" rx="40.89" ry="18"/>
<text text-anchor="middle" x="234.09" y="-230.3" font-family="Times,serif" font-size="14.00">malloc</text>
</g>
<!-- 18&#45;&gt;19 -->
<g id="edge18" class="edge">
<title>18&#45;&gt;19</title>
<path fill="none" stroke="black" d="M234.09,-287.7C234.09,-279.98 234.09,-270.71 234.09,-262.11"/>
<polygon fill="black" stroke="black" points="237.59,-262.1 234.09,-252.1 230.59,-262.1 237.59,-262.1"/>
</g>
<!-- 20 -->
<g id="node21" class="node">
<title>20</title>
<ellipse fill="none" stroke="black" cx="234.09" cy="-162" rx="62.29" ry="18"/>
<text text-anchor="middle" x="234.09" y="-158.3" font-family="Times,serif" font-size="14.00">_int_malloc</text>
</g>
<!-- 19&#45;&gt;20 -->
<g id="edge19" class="edge">
<title>19&#45;&gt;20</title>
<path fill="none" stroke="black" d="M234.09,-215.7C234.09,-207.98 234.09,-198.71 234.09,-190.11"/>
<polygon fill="black" stroke="black" points="237.59,-190.1 234.09,-180.1 230.59,-190.1 237.59,-190.1"/>
</g>
<!-- 23 -->
<g id="node24" class="node">
<title>23</title>
<ellipse fill="none" stroke="black" cx="2268.09" cy="-450" rx="88.28" ry="18"/>
<text text-anchor="middle" x="2268.09" y="-446.3" font-family="Times,serif" font-size="14.00">sqlite3VdbeExec</text>
</g>
<!-- 22&#45;&gt;23 -->
<g id="edge22" class="edge">
<title>22&#45;&gt;23</title>
<path fill="none" stroke="black" d="M1841.62,-509.48C1850.72,-507.51 1860.17,-505.59 1869.09,-504 1976.14,-484.96 2100.46,-469.48 2181.51,-460.27"/>
<polygon fill="black" stroke="black" points="2182.12,-463.73 2191.66,-459.13 2181.34,-456.77 2182.12,-463.73"/>
</g>
<!-- 40 -->
<g id="node41" class="node">
<title>40</title>
<ellipse fill="none" stroke="black" cx="1423.09" cy="-378" rx="103.18" ry="18"/>
<text text-anchor="middle" x="1423.09" y="-374.3" font-family="Times,serif" font-size="14.00">pthreadMutexEnter</text>
</g>
<!-- 22&#45;&gt;40 -->
<g id="edge43" class="edge">
<title>22&#45;&gt;40</title>
<path fill="none" stroke="black" d="M1777.33,-504.38C1757.05,-484.04 1719.8,-450.08 1681.09,-432 1650.81,-417.85 1570.99,-402.58 1508.08,-392.08"/>
<polygon fill="black" stroke="black" points="1508.57,-388.62 1498.14,-390.44 1507.43,-395.52 1508.57,-388.62"/>
</g>
<!-- 44 -->
<g id="node45" class="node">
<title>44</title>
<ellipse fill="none" stroke="black" cx="1549.09" cy="-450" rx="104.78" ry="18"/>
<text text-anchor="middle" x="1549.09" y="-446.3" font-family="Times,serif" font-size="14.00">pthreadMutexLeave</text>
</g>
<!-- 22&#45;&gt;44 -->
<g id="edge50" class="edge">
<title>22&#45;&gt;44</title>
<path fill="none" stroke="black" d="M1749.19,-508.4C1710.49,-497.3 1653.71,-481.01 1610.51,-468.62"/>
<polygon fill="black" stroke="black" points="1611.26,-465.19 1600.68,-465.8 1609.33,-471.92 1611.26,-465.19"/>
</g>
<!-- 24 -->
<g id="node25" class="node">
<title>24</title>
<ellipse fill="none" stroke="black" cx="2366.09" cy="-378" rx="78.79" ry="18"/>
<text text-anchor="middle" x="2366.09" y="-374.3" font-family="Times,serif" font-size="14.00">allocateCursor</text>
</g>
<!-- 23&#45;&gt;24 -->
<g id="edge23" class="edge">
<title>23&#45;&gt;24</title>
<path fill="none" stroke="black" d="M2291.32,-432.41C2304.25,-423.17 2320.54,-411.54 2334.61,-401.49"/>
<polygon fill="black" stroke="black" points="2336.93,-404.13 2343.03,-395.47 2332.86,-398.43 2336.93,-404.13"/>
</g>
<!-- 25 -->
<g id="node26" class="node">
<title>25</title>
<ellipse fill="none" stroke="black" cx="1922.09" cy="-378" rx="85.59" ry="18"/>
<text text-anchor="middle" x="1922.09" y="-374.3" font-family="Times,serif" font-size="14.00">sqlite3VdbeHalt</text>
</g>
<!-- 23&#45;&gt;25 -->
<g id="edge24" class="edge">
<title>23&#45;&gt;25</title>
<path fill="none" stroke="black" d="M2207.82,-436.81C2147.54,-424.61 2054.92,-405.87 1991.58,-393.06"/>
<polygon fill="black" stroke="black" points="1992.17,-389.61 1981.67,-391.05 1990.78,-396.47 1992.17,-389.61"/>
</g>
<!-- 28 -->
<g id="node29" class="node">
<title>28</title>
<ellipse fill="none" stroke="black" cx="2689.09" cy="-306" rx="121.58" ry="18"/>
<text text-anchor="middle" x="2689.09" y="-302.3" font-family="Times,serif" font-size="14.00">sqlite3BtreeBeginTrans</text>
</g>
<!-- 23&#45;&gt;28 -->
<g id="edge27" class="edge">
<title>23&#45;&gt;28</title>
<path fill="none" stroke="black" d="M2320.16,-435.43C2357.66,-425.35 2409.31,-410.83 2454.09,-396 2519.18,-374.44 2592.93,-345.81 2640.17,-326.91"/>
<polygon fill="black" stroke="black" points="2641.56,-330.12 2649.54,-323.15 2638.96,-323.63 2641.56,-330.12"/>
</g>
<!-- 32 -->
<g id="node33" class="node">
<title>32</title>
<ellipse fill="none" stroke="black" cx="2989.09" cy="-378" rx="149.47" ry="18"/>
<text text-anchor="middle" x="2989.09" y="-374.3" font-family="Times,serif" font-size="14.00">sqlite3BtreeMovetoUnpacked</text>
</g>
<!-- 23&#45;&gt;32 -->
<g id="edge31" class="edge">
<title>23&#45;&gt;32</title>
<path fill="none" stroke="black" d="M2345.94,-441.44C2471.05,-429.29 2717.9,-405.33 2866.74,-390.88"/>
<polygon fill="black" stroke="black" points="2867.23,-394.35 2876.84,-389.9 2866.55,-387.38 2867.23,-394.35"/>
</g>
<!-- 48 -->
<g id="node49" class="node">
<title>48</title>
<ellipse fill="none" stroke="black" cx="2169.09" cy="-378" rx="100.18" ry="18"/>
<text text-anchor="middle" x="2169.09" y="-374.3" font-family="Times,serif" font-size="14.00">sqlite3BtreeCursor</text>
</g>
<!-- 23&#45;&gt;48 -->
<g id="edge54" class="edge">
<title>23&#45;&gt;48</title>
<path fill="none" stroke="black" d="M2244.88,-432.59C2231.82,-423.35 2215.32,-411.68 2201.05,-401.59"/>
<polygon fill="black" stroke="black" points="2202.69,-398.47 2192.5,-395.55 2198.65,-404.18 2202.69,-398.47"/>
</g>
<!-- 57 -->
<g id="node58" class="node">
<title>57</title>
<ellipse fill="none" stroke="black" cx="2366.09" cy="-306" rx="114.28" ry="18"/>
<text text-anchor="middle" x="2366.09" y="-302.3" font-family="Times,serif" font-size="14.00">sqlite3VdbeMemGrow</text>
</g>
<!-- 24&#45;&gt;57 -->
<g id="edge62" class="edge">
<title>24&#45;&gt;57</title>
<path fill="none" stroke="black" d="M2366.09,-359.7C2366.09,-351.98 2366.09,-342.71 2366.09,-334.11"/>
<polygon fill="black" stroke="black" points="2369.59,-334.1 2366.09,-324.1 2362.59,-334.1 2369.59,-334.1"/>
</g>
<!-- 26 -->
<g id="node27" class="node">
<title>26</title>
<ellipse fill="none" stroke="black" cx="1929.09" cy="-306" rx="151.37" ry="18"/>
<text text-anchor="middle" x="1929.09" y="-302.3" font-family="Times,serif" font-size="14.00">sqlite3BtreeCommitPhaseTwo</text>
</g>
<!-- 25&#45;&gt;26 -->
<g id="edge25" class="edge">
<title>25&#45;&gt;26</title>
<path fill="none" stroke="black" d="M1923.82,-359.7C1924.59,-351.98 1925.52,-342.71 1926.38,-334.11"/>
<polygon fill="black" stroke="black" points="1929.87,-334.4 1927.38,-324.1 1922.9,-333.71 1929.87,-334.4"/>
</g>
<!-- 30 -->
<g id="node31" class="node">
<title>30</title>
<ellipse fill="none" stroke="black" cx="2166.09" cy="-306" rx="67.69" ry="18"/>
<text text-anchor="middle" x="2166.09" y="-302.3" font-family="Times,serif" font-size="14.00">callFinaliser</text>
</g>
<!-- 25&#45;&gt;30 -->
<g id="edge29" class="edge">
<title>25&#45;&gt;30</title>
<path fill="none" stroke="black" d="M1970.59,-363.09C2011.38,-351.39 2069.64,-334.67 2111.94,-322.54"/>
<polygon fill="black" stroke="black" points="2113.14,-325.83 2121.79,-319.71 2111.21,-319.1 2113.14,-325.83"/>
</g>
<!-- 47 -->
<g id="node48" class="node">
<title>47</title>
<ellipse fill="none" stroke="black" cx="1056.09" cy="-306" rx="123.48" ry="18"/>
<text text-anchor="middle" x="1056.09" y="-302.3" font-family="Times,serif" font-size="14.00">releaseMemArray.part.0</text>
</g>
<!-- 25&#45;&gt;47 -->
<g id="edge53" class="edge">
<title>25&#45;&gt;47</title>
<path fill="none" stroke="black" d="M1862.33,-365.06C1851,-363.12 1839.21,-361.31 1828.09,-360 1545.16,-326.59 1471.78,-350.21 1188.09,-324 1176.41,-322.92 1164.17,-321.6 1152.05,-320.18"/>
<polygon fill="black" stroke="black" points="1152.26,-316.68 1141.91,-318.96 1151.42,-323.63 1152.26,-316.68"/>
</g>
<!-- 60 -->
<g id="node61" class="node">
<title>60</title>
<ellipse fill="none" stroke="black" cx="1606.09" cy="-306" rx="153.27" ry="18"/>
<text text-anchor="middle" x="1606.09" y="-302.3" font-family="Times,serif" font-size="14.00">sqlite3BtreeCloseCursor.isra.0</text>
</g>
<!-- 25&#45;&gt;60 -->
<g id="edge65" class="edge">
<title>25&#45;&gt;60</title>
<path fill="none" stroke="black" d="M1865.23,-364.4C1814.78,-353.23 1740.58,-336.79 1684.5,-324.37"/>
<polygon fill="black" stroke="black" points="1685.12,-320.92 1674.6,-322.18 1683.61,-327.76 1685.12,-320.92"/>
</g>
<!-- 63 -->
<g id="node64" class="node">
<title>63</title>
<ellipse fill="none" stroke="black" cx="1316.09" cy="-306" rx="118.88" ry="18"/>
<text text-anchor="middle" x="1316.09" y="-302.3" font-family="Times,serif" font-size="14.00">sqlite3VdbeFreeCursor</text>
</g>
<!-- 25&#45;&gt;63 -->
<g id="edge68" class="edge">
<title>25&#45;&gt;63</title>
<path fill="none" stroke="black" d="M1861.28,-365.22C1850.26,-363.31 1838.85,-361.47 1828.09,-360 1658.26,-336.73 1614.42,-343.29 1444.09,-324 1433.35,-322.78 1422.11,-321.42 1410.94,-320.01"/>
<polygon fill="black" stroke="black" points="1411.09,-316.5 1400.72,-318.71 1410.2,-323.45 1411.09,-316.5"/>
</g>
<!-- 27 -->
<g id="node28" class="node">
<title>27</title>
<ellipse fill="none" stroke="black" cx="1865.09" cy="-234" rx="108.58" ry="18"/>
<text text-anchor="middle" x="1865.09" y="-230.3" font-family="Times,serif" font-size="14.00">btreeEndTransaction</text>
</g>
<!-- 26&#45;&gt;27 -->
<g id="edge26" class="edge">
<title>26&#45;&gt;27</title>
<path fill="none" stroke="black" d="M1913.6,-288.05C1905.85,-279.58 1896.33,-269.17 1887.78,-259.82"/>
<polygon fill="black" stroke="black" points="1890.22,-257.29 1880.89,-252.28 1885.05,-262.02 1890.22,-257.29"/>
</g>
<!-- 45 -->
<g id="node46" class="node">
<title>45</title>
<ellipse fill="none" stroke="black" cx="2064.09" cy="-234" rx="72.29" ry="18"/>
<text text-anchor="middle" x="2064.09" y="-230.3" font-family="Times,serif" font-size="14.00">pager_unlock</text>
</g>
<!-- 26&#45;&gt;45 -->
<g id="edge51" class="edge">
<title>26&#45;&gt;45</title>
<path fill="none" stroke="black" d="M1961.43,-288.23C1980.64,-278.27 2005.12,-265.58 2025.36,-255.08"/>
<polygon fill="black" stroke="black" points="2027.06,-258.14 2034.33,-250.43 2023.84,-251.93 2027.06,-258.14"/>
</g>
<!-- 62 -->
<g id="node63" class="node">
<title>62</title>
<ellipse fill="none" stroke="black" cx="1761.09" cy="-162" rx="111.28" ry="18"/>
<text text-anchor="middle" x="1761.09" y="-158.3" font-family="Times,serif" font-size="14.00">sqlite3PcacheRelease</text>
</g>
<!-- 27&#45;&gt;62 -->
<g id="edge67" class="edge">
<title>27&#45;&gt;62</title>
<path fill="none" stroke="black" d="M1840.45,-216.41C1826.69,-207.15 1809.36,-195.49 1794.41,-185.42"/>
<polygon fill="black" stroke="black" points="1796.17,-182.39 1785.92,-179.71 1792.26,-188.2 1796.17,-182.39"/>
</g>
<!-- 29 -->
<g id="node30" class="node">
<title>29</title>
<ellipse fill="none" stroke="black" cx="2757.09" cy="-234" rx="74.99" ry="18"/>
<text text-anchor="middle" x="2757.09" y="-230.3" font-family="Times,serif" font-size="14.00">btreeGetPage</text>
</g>
<!-- 28&#45;&gt;29 -->
<g id="edge28" class="edge">
<title>28&#45;&gt;29</title>
<path fill="none" stroke="black" d="M2705.55,-288.05C2713.99,-279.37 2724.41,-268.64 2733.67,-259.11"/>
<polygon fill="black" stroke="black" points="2736.33,-261.4 2740.78,-251.79 2731.3,-256.52 2736.33,-261.4"/>
</g>
<!-- 36 -->
<g id="node37" class="node">
<title>36</title>
<ellipse fill="none" stroke="black" cx="2540.09" cy="-234" rx="124.28" ry="18"/>
<text text-anchor="middle" x="2540.09" y="-230.3" font-family="Times,serif" font-size="14.00">sqlite3PagerSharedLock</text>
</g>
<!-- 28&#45;&gt;36 -->
<g id="edge36" class="edge">
<title>28&#45;&gt;36</title>
<path fill="none" stroke="black" d="M2654.16,-288.59C2633.24,-278.76 2606.45,-266.17 2584.09,-255.67"/>
<polygon fill="black" stroke="black" points="2585.35,-252.39 2574.81,-251.31 2582.37,-258.73 2585.35,-252.39"/>
</g>
<!-- 59 -->
<g id="node60" class="node">
<title>59</title>
<ellipse fill="none" stroke="black" cx="2960.09" cy="-234" rx="110.48" ry="18"/>
<text text-anchor="middle" x="2960.09" y="-230.3" font-family="Times,serif" font-size="14.00">sqlite3PagerOpenWal</text>
</g>
<!-- 28&#45;&gt;59 -->
<g id="edge64" class="edge">
<title>28&#45;&gt;59</title>
<path fill="none" stroke="black" d="M2746.9,-290.07C2789.96,-278.94 2848.85,-263.74 2893.82,-252.12"/>
<polygon fill="black" stroke="black" points="2894.96,-255.44 2903.77,-249.55 2893.21,-248.66 2894.96,-255.44"/>
</g>
<!-- 35 -->
<g id="node36" class="node">
<title>35</title>
<ellipse fill="none" stroke="black" cx="3102.09" cy="-162" rx="83.39" ry="18"/>
<text text-anchor="middle" x="3102.09" y="-158.3" font-family="Times,serif" font-size="14.00">getPageNormal</text>
</g>
<!-- 29&#45;&gt;35 -->
<g id="edge34" class="edge">
<title>29&#45;&gt;35</title>
<path fill="none" stroke="black" d="M2812.52,-221.75C2872.64,-209.56 2968.67,-190.07 3033.5,-176.92"/>
<polygon fill="black" stroke="black" points="3034.52,-180.28 3043.63,-174.86 3033.13,-173.42 3034.52,-180.28"/>
</g>
<!-- 33 -->
<g id="node34" class="node">
<title>33</title>
<ellipse fill="none" stroke="black" cx="3080.09" cy="-306" rx="67.69" ry="18"/>
<text text-anchor="middle" x="3080.09" y="-302.3" font-family="Times,serif" font-size="14.00">moveToRoot</text>
</g>
<!-- 32&#45;&gt;33 -->
<g id="edge32" class="edge">
<title>32&#45;&gt;33</title>
<path fill="none" stroke="black" d="M3011.12,-360.05C3023.03,-350.89 3037.89,-339.46 3050.77,-329.56"/>
<polygon fill="black" stroke="black" points="3053.1,-332.18 3058.89,-323.31 3048.83,-326.63 3053.1,-332.18"/>
</g>
<!-- 34 -->
<g id="node35" class="node">
<title>34</title>
<ellipse fill="none" stroke="black" cx="3171.09" cy="-234" rx="82.59" ry="18"/>
<text text-anchor="middle" x="3171.09" y="-230.3" font-family="Times,serif" font-size="14.00">getAndInitPage</text>
</g>
<!-- 33&#45;&gt;34 -->
<g id="edge33" class="edge">
<title>33&#45;&gt;34</title>
<path fill="none" stroke="black" d="M3101.2,-288.76C3113.09,-279.62 3128.13,-268.05 3141.21,-257.99"/>
<polygon fill="black" stroke="black" points="3143.68,-260.5 3149.47,-251.63 3139.41,-254.96 3143.68,-260.5"/>
</g>
<!-- 34&#45;&gt;35 -->
<g id="edge35" class="edge">
<title>34&#45;&gt;35</title>
<path fill="none" stroke="black" d="M3154.39,-216.05C3145.83,-207.37 3135.26,-196.64 3125.86,-187.11"/>
<polygon fill="black" stroke="black" points="3128.15,-184.45 3118.64,-179.79 3123.17,-189.37 3128.15,-184.45"/>
</g>
<!-- 38 -->
<g id="node39" class="node">
<title>38</title>
<ellipse fill="none" stroke="black" cx="3102.09" cy="-90" rx="74.99" ry="18"/>
<text text-anchor="middle" x="3102.09" y="-86.3" font-family="Times,serif" font-size="14.00">pcache1Fetch</text>
</g>
<!-- 35&#45;&gt;38 -->
<g id="edge38" class="edge">
<title>35&#45;&gt;38</title>
<path fill="none" stroke="black" d="M3102.09,-143.7C3102.09,-135.98 3102.09,-126.71 3102.09,-118.11"/>
<polygon fill="black" stroke="black" points="3105.59,-118.1 3102.09,-108.1 3098.59,-118.1 3105.59,-118.1"/>
</g>
<!-- 37 -->
<g id="node38" class="node">
<title>37</title>
<ellipse fill="none" stroke="black" cx="2540.09" cy="-162" rx="85.59" ry="18"/>
<text text-anchor="middle" x="2540.09" y="-158.3" font-family="Times,serif" font-size="14.00">pagerPagecount</text>
</g>
<!-- 36&#45;&gt;37 -->
<g id="edge37" class="edge">
<title>36&#45;&gt;37</title>
<path fill="none" stroke="black" d="M2540.09,-215.7C2540.09,-207.98 2540.09,-198.71 2540.09,-190.11"/>
<polygon fill="black" stroke="black" points="2543.59,-190.1 2540.09,-180.1 2536.59,-190.1 2543.59,-190.1"/>
</g>
<!-- 67 -->
<g id="node68" class="node">
<title>67</title>
<ellipse fill="none" stroke="black" cx="2280.09" cy="-162" rx="155.97" ry="18"/>
<text text-anchor="middle" x="2280.09" y="-158.3" font-family="Times,serif" font-size="14.00">sqlite3WalEndReadTransaction</text>
</g>
<!-- 36&#45;&gt;67 -->
<g id="edge74" class="edge">
<title>36&#45;&gt;67</title>
<path fill="none" stroke="black" d="M2484,-217.9C2444.33,-207.22 2390.92,-192.84 2348.72,-181.48"/>
<polygon fill="black" stroke="black" points="2349.36,-178.02 2338.79,-178.8 2347.54,-184.78 2349.36,-178.02"/>
</g>
<!-- 70 -->
<g id="node71" class="node">
<title>70</title>
<ellipse fill="none" stroke="black" cx="2737.09" cy="-162" rx="92.88" ry="18"/>
<text text-anchor="middle" x="2737.09" y="-158.3" font-family="Times,serif" font-size="14.00">walTryBeginRead</text>
</g>
<!-- 36&#45;&gt;70 -->
<g id="edge78" class="edge">
<title>36&#45;&gt;70</title>
<path fill="none" stroke="black" d="M2584.79,-217.12C2614.5,-206.56 2653.62,-192.66 2684.78,-181.59"/>
<polygon fill="black" stroke="black" points="2686.34,-184.75 2694.59,-178.1 2684,-178.15 2686.34,-184.75"/>
</g>
<!-- 39&#45;&gt;40 -->
<g id="edge40" class="edge">
<title>39&#45;&gt;40</title>
<path fill="none" stroke="black" d="M1432.77,-503.87C1430.89,-479.67 1427.45,-435.21 1425.21,-406.39"/>
<polygon fill="black" stroke="black" points="1428.69,-405.89 1424.42,-396.19 1421.71,-406.43 1428.69,-405.89"/>
</g>
<!-- 39&#45;&gt;44 -->
<g id="edge48" class="edge">
<title>39&#45;&gt;44</title>
<path fill="none" stroke="black" d="M1461.35,-504.41C1476.81,-495 1496.36,-483.1 1513.08,-472.92"/>
<polygon fill="black" stroke="black" points="1515.31,-475.66 1522.03,-467.47 1511.67,-469.68 1515.31,-475.66"/>
</g>
<!-- 41&#45;&gt;40 -->
<g id="edge42" class="edge">
<title>41&#45;&gt;40</title>
<path fill="none" stroke="black" d="M1650.2,-504.15C1663.54,-484.82 1680.03,-453.08 1663.09,-432 1653.05,-419.5 1572.09,-403.41 1506.93,-392.26"/>
<polygon fill="black" stroke="black" points="1507.48,-388.8 1497.04,-390.58 1506.31,-395.7 1507.48,-388.8"/>
</g>
<!-- 41&#45;&gt;44 -->
<g id="edge49" class="edge">
<title>41&#45;&gt;44</title>
<path fill="none" stroke="black" d="M1616.24,-504.41C1604.81,-495.32 1590.48,-483.92 1577.99,-473.99"/>
<polygon fill="black" stroke="black" points="1580.11,-471.2 1570.1,-467.71 1575.75,-476.68 1580.11,-471.2"/>
</g>
<!-- 64 -->
<g id="node65" class="node">
<title>64</title>
<ellipse fill="none" stroke="black" cx="1840.09" cy="-450" rx="92.08" ry="18"/>
<text text-anchor="middle" x="1840.09" y="-446.3" font-family="Times,serif" font-size="14.00">sqlite3VdbeReset</text>
</g>
<!-- 41&#45;&gt;64 -->
<g id="edge69" class="edge">
<title>41&#45;&gt;64</title>
<path fill="none" stroke="black" d="M1677.68,-507C1709.07,-496.18 1752.78,-481.11 1786.94,-469.33"/>
<polygon fill="black" stroke="black" points="1788.45,-472.51 1796.76,-465.94 1786.17,-465.89 1788.45,-472.51"/>
</g>
<!-- 43 -->
<g id="node44" class="node">
<title>43</title>
<ellipse fill="none" stroke="black" cx="1063.09" cy="-450" rx="67.69" ry="18"/>
<text text-anchor="middle" x="1063.09" y="-446.3" font-family="Times,serif" font-size="14.00">vdbeUnbind</text>
</g>
<!-- 42&#45;&gt;43 -->
<g id="edge45" class="edge">
<title>42&#45;&gt;43</title>
<path fill="none" stroke="black" d="M1216.23,-508.32C1186.53,-497.21 1143.06,-480.93 1110.01,-468.56"/>
<polygon fill="black" stroke="black" points="1111.15,-465.25 1100.56,-465.02 1108.7,-471.81 1111.15,-465.25"/>
</g>
<!-- 42&#45;&gt;44 -->
<g id="edge47" class="edge">
<title>42&#45;&gt;44</title>
<path fill="none" stroke="black" d="M1288.41,-509.99C1295.91,-507.93 1303.73,-505.84 1311.09,-504 1365.91,-490.27 1428.28,-476.44 1475.42,-466.36"/>
<polygon fill="black" stroke="black" points="1476.19,-469.77 1485.24,-464.27 1474.73,-462.93 1476.19,-469.77"/>
</g>
<!-- 65 -->
<g id="node66" class="node">
<title>65</title>
<ellipse fill="none" stroke="black" cx="1268.09" cy="-450" rx="119.68" ry="18"/>
<text text-anchor="middle" x="1268.09" y="-446.3" font-family="Times,serif" font-size="14.00">sqlite3VdbeMemSetStr</text>
</g>
<!-- 42&#45;&gt;65 -->
<g id="edge71" class="edge">
<title>42&#45;&gt;65</title>
<path fill="none" stroke="black" d="M1254.45,-504.05C1256.45,-496.26 1258.88,-486.82 1261.13,-478.08"/>
<polygon fill="black" stroke="black" points="1264.55,-478.83 1263.65,-468.28 1257.77,-477.09 1264.55,-478.83"/>
</g>
<!-- 43&#45;&gt;40 -->
<g id="edge46" class="edge">
<title>43&#45;&gt;40</title>
<path fill="none" stroke="black" d="M1112.5,-437.68C1121.35,-435.73 1130.48,-433.77 1139.09,-432 1207.81,-417.91 1286.2,-403.39 1343.19,-393.13"/>
<polygon fill="black" stroke="black" points="1344,-396.54 1353.22,-391.32 1342.76,-389.65 1344,-396.54"/>
</g>
<!-- 46 -->
<g id="node47" class="node">
<title>46</title>
<ellipse fill="none" stroke="black" cx="1998.09" cy="-162" rx="107.78" ry="18"/>
<text text-anchor="middle" x="1998.09" y="-158.3" font-family="Times,serif" font-size="14.00">releaseAllSavepoints</text>
</g>
<!-- 45&#45;&gt;46 -->
<g id="edge52" class="edge">
<title>45&#45;&gt;46</title>
<path fill="none" stroke="black" d="M2048.45,-216.41C2040.27,-207.73 2030.1,-196.95 2021.04,-187.34"/>
<polygon fill="black" stroke="black" points="2023.49,-184.83 2014.08,-179.96 2018.39,-189.63 2023.49,-184.83"/>
</g>
<!-- 45&#45;&gt;67 -->
<g id="edge73" class="edge">
<title>45&#45;&gt;67</title>
<path fill="none" stroke="black" d="M2106.25,-219.34C2138.8,-208.79 2184.24,-194.06 2220.5,-182.31"/>
<polygon fill="black" stroke="black" points="2222.03,-185.49 2230.47,-179.08 2219.88,-178.84 2222.03,-185.49"/>
</g>
<!-- 69 -->
<g id="node70" class="node">
<title>69</title>
<ellipse fill="none" stroke="black" cx="1722.09" cy="-90" rx="65.79" ry="18"/>
<text text-anchor="middle" x="1722.09" y="-86.3" font-family="Times,serif" font-size="14.00">sqlite3_free</text>
</g>
<!-- 46&#45;&gt;69 -->
<g id="edge76" class="edge">
<title>46&#45;&gt;69</title>
<path fill="none" stroke="black" d="M1941.57,-146.67C1893.87,-134.57 1825.92,-117.33 1778.31,-105.26"/>
<polygon fill="black" stroke="black" points="1779.02,-101.83 1768.47,-102.76 1777.3,-108.61 1779.02,-101.83"/>
</g>
<!-- 49 -->
<g id="node50" class="node">
<title>49</title>
<ellipse fill="none" stroke="black" cx="3432.09" cy="-666" rx="89.08" ry="18"/>
<text text-anchor="middle" x="3432.09" y="-662.3" font-family="Times,serif" font-size="14.00">benchmark_open</text>
</g>
<!-- 50 -->
<g id="node51" class="node">
<title>50</title>
<ellipse fill="none" stroke="black" cx="3432.09" cy="-594" rx="67.69" ry="18"/>
<text text-anchor="middle" x="3432.09" y="-590.3" font-family="Times,serif" font-size="14.00">sqlite3_exec</text>
</g>
<!-- 49&#45;&gt;50 -->
<g id="edge55" class="edge">
<title>49&#45;&gt;50</title>
<path fill="none" stroke="black" d="M3432.09,-647.7C3432.09,-639.98 3432.09,-630.71 3432.09,-622.11"/>
<polygon fill="black" stroke="black" points="3435.59,-622.1 3432.09,-612.1 3428.59,-622.1 3435.59,-622.1"/>
</g>
<!-- 51 -->
<g id="node52" class="node">
<title>51</title>
<ellipse fill="none" stroke="black" cx="3432.09" cy="-522" rx="118.88" ry="18"/>
<text text-anchor="middle" x="3432.09" y="-518.3" font-family="Times,serif" font-size="14.00">sqlite3LockAndPrepare</text>
</g>
<!-- 50&#45;&gt;51 -->
<g id="edge56" class="edge">
<title>50&#45;&gt;51</title>
<path fill="none" stroke="black" d="M3432.09,-575.7C3432.09,-567.98 3432.09,-558.71 3432.09,-550.11"/>
<polygon fill="black" stroke="black" points="3435.59,-550.1 3432.09,-540.1 3428.59,-550.1 3435.59,-550.1"/>
</g>
<!-- 52 -->
<g id="node53" class="node">
<title>52</title>
<ellipse fill="none" stroke="black" cx="3432.09" cy="-450" rx="79.09" ry="18"/>
<text text-anchor="middle" x="3432.09" y="-446.3" font-family="Times,serif" font-size="14.00">sqlite3Prepare</text>
</g>
<!-- 51&#45;&gt;52 -->
<g id="edge57" class="edge">
<title>51&#45;&gt;52</title>
<path fill="none" stroke="black" d="M3432.09,-503.7C3432.09,-495.98 3432.09,-486.71 3432.09,-478.11"/>
<polygon fill="black" stroke="black" points="3435.59,-478.1 3432.09,-468.1 3428.59,-478.1 3435.59,-478.1"/>
</g>
<!-- 53 -->
<g id="node54" class="node">
<title>53</title>
<ellipse fill="none" stroke="black" cx="3432.09" cy="-378" rx="148.37" ry="18"/>
<text text-anchor="middle" x="3432.09" y="-374.3" font-family="Times,serif" font-size="14.00">sqlite3RunParser.constprop.0</text>
</g>
<!-- 52&#45;&gt;53 -->
<g id="edge58" class="edge">
<title>52&#45;&gt;53</title>
<path fill="none" stroke="black" d="M3432.09,-431.7C3432.09,-423.98 3432.09,-414.71 3432.09,-406.11"/>
<polygon fill="black" stroke="black" points="3435.59,-406.1 3432.09,-396.1 3428.59,-406.1 3435.59,-406.1"/>
</g>
<!-- 54 -->
<g id="node55" class="node">
<title>54</title>
<ellipse fill="none" stroke="black" cx="3432.09" cy="-306" rx="72.59" ry="18"/>
<text text-anchor="middle" x="3432.09" y="-302.3" font-family="Times,serif" font-size="14.00">sqlite3Parser</text>
</g>
<!-- 53&#45;&gt;54 -->
<g id="edge59" class="edge">
<title>53&#45;&gt;54</title>
<path fill="none" stroke="black" d="M3432.09,-359.7C3432.09,-351.98 3432.09,-342.71 3432.09,-334.11"/>
<polygon fill="black" stroke="black" points="3435.59,-334.1 3432.09,-324.1 3428.59,-334.1 3435.59,-334.1"/>
</g>
<!-- 55 -->
<g id="node56" class="node">
<title>55</title>
<ellipse fill="none" stroke="black" cx="3432.09" cy="-234" rx="90.98" ry="18"/>
<text text-anchor="middle" x="3432.09" y="-230.3" font-family="Times,serif" font-size="14.00">sqlite3StartTable</text>
</g>
<!-- 54&#45;&gt;55 -->
<g id="edge60" class="edge">
<title>54&#45;&gt;55</title>
<path fill="none" stroke="black" d="M3432.09,-287.7C3432.09,-279.98 3432.09,-270.71 3432.09,-262.11"/>
<polygon fill="black" stroke="black" points="3435.59,-262.1 3432.09,-252.1 3428.59,-262.1 3435.59,-262.1"/>
</g>
<!-- 56 -->
<g id="node57" class="node">
<title>56</title>
<ellipse fill="none" stroke="black" cx="3432.09" cy="-162" rx="128.08" ry="18"/>
<text text-anchor="middle" x="3432.09" y="-158.3" font-family="Times,serif" font-size="14.00">sqlite3CheckObjectName</text>
</g>
<!-- 55&#45;&gt;56 -->
<g id="edge61" class="edge">
<title>55&#45;&gt;56</title>
<path fill="none" stroke="black" d="M3432.09,-215.7C3432.09,-207.98 3432.09,-198.71 3432.09,-190.11"/>
<polygon fill="black" stroke="black" points="3435.59,-190.1 3432.09,-180.1 3428.59,-190.1 3435.59,-190.1"/>
</g>
<!-- 58 -->
<g id="node59" class="node">
<title>58</title>
<ellipse fill="none" stroke="black" cx="2276.09" cy="-234" rx="122.38" ry="18"/>
<text text-anchor="middle" x="2276.09" y="-230.3" font-family="Times,serif" font-size="14.00">sqlite3DbMallocRawNN</text>
</g>
<!-- 57&#45;&gt;58 -->
<g id="edge63" class="edge">
<title>57&#45;&gt;58</title>
<path fill="none" stroke="black" d="M2344.31,-288.05C2332.7,-279.03 2318.25,-267.79 2305.65,-257.99"/>
<polygon fill="black" stroke="black" points="2307.72,-255.17 2297.68,-251.79 2303.42,-260.69 2307.72,-255.17"/>
</g>
<!-- 61 -->
<g id="node62" class="node">
<title>61</title>
<ellipse fill="none" stroke="black" cx="1606.09" cy="-234" rx="132.68" ry="18"/>
<text text-anchor="middle" x="1606.09" y="-230.3" font-family="Times,serif" font-size="14.00">sqlite3PagerUnrefNotNull</text>
</g>
<!-- 60&#45;&gt;61 -->
<g id="edge66" class="edge">
<title>60&#45;&gt;61</title>
<path fill="none" stroke="black" d="M1606.09,-287.7C1606.09,-279.98 1606.09,-270.71 1606.09,-262.11"/>
<polygon fill="black" stroke="black" points="1609.59,-262.1 1606.09,-252.1 1602.59,-262.1 1609.59,-262.1"/>
</g>
<!-- 60&#45;&gt;69 -->
<g id="edge77" class="edge">
<title>60&#45;&gt;69</title>
<path fill="none" stroke="black" d="M1519.95,-291.06C1498.2,-283.23 1477.3,-271.02 1464.09,-252 1454.97,-238.86 1455.6,-229.56 1464.09,-216 1506.15,-148.88 1595.62,-116.91 1657.3,-102.32"/>
<polygon fill="black" stroke="black" points="1658.36,-105.67 1667.33,-100.04 1656.81,-98.84 1658.36,-105.67"/>
</g>
<!-- 64&#45;&gt;25 -->
<g id="edge70" class="edge">
<title>64&#45;&gt;25</title>
<path fill="none" stroke="black" d="M1859.94,-432.05C1870.49,-423.05 1883.62,-411.84 1895.09,-402.05"/>
<polygon fill="black" stroke="black" points="1897.37,-404.7 1902.71,-395.55 1892.83,-399.38 1897.37,-404.7"/>
</g>
<!-- 66 -->
<g id="node67" class="node">
<title>66</title>
<ellipse fill="none" stroke="black" cx="1688.09" cy="-378" rx="130.78" ry="18"/>
<text text-anchor="middle" x="1688.09" y="-374.3" font-family="Times,serif" font-size="14.00">sqlite3VdbeTransferError</text>
</g>
<!-- 64&#45;&gt;66 -->
<g id="edge72" class="edge">
<title>64&#45;&gt;66</title>
<path fill="none" stroke="black" d="M1805.6,-433.12C1784.12,-423.22 1756.26,-410.39 1733.06,-399.71"/>
<polygon fill="black" stroke="black" points="1734.31,-396.43 1723.77,-395.43 1731.39,-402.79 1734.31,-396.43"/>
</g>
<!-- 71 -->
<g id="node72" class="node">
<title>71</title>
<ellipse fill="none" stroke="black" cx="2737.09" cy="-90" rx="94.48" ry="18"/>
<text text-anchor="middle" x="2737.09" y="-86.3" font-family="Times,serif" font-size="14.00">walIndexReadHdr</text>
</g>
<!-- 70&#45;&gt;71 -->
<g id="edge79" class="edge">
<title>70&#45;&gt;71</title>
<path fill="none" stroke="black" d="M2737.09,-143.7C2737.09,-135.98 2737.09,-126.71 2737.09,-118.11"/>
<polygon fill="black" stroke="black" points="2740.59,-118.1 2737.09,-108.1 2733.59,-118.1 2740.59,-118.1"/>
</g>
<!-- 72 -->
<g id="node73" class="node">
<title>72</title>
<ellipse fill="none" stroke="black" cx="2737.09" cy="-18" rx="86.38" ry="18"/>
<text text-anchor="middle" x="2737.09" y="-14.3" font-family="Times,serif" font-size="14.00">walIndexTryHdr</text>
</g>
<!-- 71&#45;&gt;72 -->
<g id="edge80" class="edge">
<title>71&#45;&gt;72</title>
<path fill="none" stroke="black" d="M2737.09,-71.7C2737.09,-63.98 2737.09,-54.71 2737.09,-46.11"/>
<polygon fill="black" stroke="black" points="2740.59,-46.1 2737.09,-36.1 2733.59,-46.1 2740.59,-46.1"/>
</g>
</g>
</svg>
