<?xml version="1.0" encoding="UTF-8" standalone="no"?>
<!DOCTYPE svg PUBLIC "-//W3C//DTD SVG 1.1//EN"
 "http://www.w3.org/Graphics/SVG/1.1/DTD/svg11.dtd">
<!-- Generated by graphviz version 2.42.4 (0)
 -->
<!-- Pages: 1 -->
<svg width="654pt" height="980pt"
 viewBox="0.00 0.00 653.68 980.00" xmlns="http://www.w3.org/2000/svg" xmlns:xlink="http://www.w3.org/1999/xlink">
<g id="graph0" class="graph" transform="scale(1 1) rotate(0) translate(4 976)">
<polygon fill="white" stroke="transparent" points="-4,4 -4,-976 649.68,-976 649.68,4 -4,4"/>
<!-- 0 -->
<g id="node1" class="node">
<title>0</title>
<ellipse fill="none" stroke="black" cx="403.49" cy="-882" rx="89.08" ry="18"/>
<text text-anchor="middle" x="403.49" y="-878.3" font-family="Times,serif" font-size="14.00">benchmark_open</text>
</g>
<!-- 1 -->
<g id="node2" class="node">
<title>1</title>
<ellipse fill="none" stroke="black" cx="322.49" cy="-810" rx="67.69" ry="18"/>
<text text-anchor="middle" x="322.49" y="-806.3" font-family="Times,serif" font-size="14.00">sqlite3_exec</text>
</g>
<!-- 0&#45;&gt;1 -->
<g id="edge1" class="edge">
<title>0&#45;&gt;1</title>
<path fill="none" stroke="black" d="M384.29,-864.41C373.8,-855.34 360.65,-843.97 349.17,-834.06"/>
<polygon fill="black" stroke="black" points="351.4,-831.36 341.55,-827.47 346.83,-836.66 351.4,-831.36"/>
</g>
<!-- 7 -->
<g id="node8" class="node">
<title>7</title>
<ellipse fill="none" stroke="black" cx="523.49" cy="-810" rx="76.89" ry="18"/>
<text text-anchor="middle" x="523.49" y="-806.3" font-family="Times,serif" font-size="14.00">openDatabase</text>
</g>
<!-- 0&#45;&gt;7 -->
<g id="edge7" class="edge">
<title>0&#45;&gt;7</title>
<path fill="none" stroke="black" d="M431.32,-864.76C447.95,-855.07 469.25,-842.64 487.19,-832.17"/>
<polygon fill="black" stroke="black" points="489.35,-834.97 496.22,-826.91 485.82,-828.92 489.35,-834.97"/>
</g>
<!-- 2 -->
<g id="node3" class="node">
<title>2</title>
<ellipse fill="none" stroke="black" cx="163.49" cy="-738" rx="66.89" ry="18"/>
<text text-anchor="middle" x="163.49" y="-734.3" font-family="Times,serif" font-size="14.00">sqlite3_step</text>
</g>
<!-- 1&#45;&gt;2 -->
<g id="edge2" class="edge">
<title>1&#45;&gt;2</title>
<path fill="none" stroke="black" d="M289.16,-794.33C264.99,-783.69 232.11,-769.21 206.04,-757.73"/>
<polygon fill="black" stroke="black" points="207.34,-754.48 196.78,-753.65 204.52,-760.89 207.34,-754.48"/>
</g>
<!-- 10 -->
<g id="node11" class="node">
<title>10</title>
<ellipse fill="none" stroke="black" cx="385.49" cy="-738" rx="98.28" ry="18"/>
<text text-anchor="middle" x="385.49" y="-734.3" font-family="Times,serif" font-size="14.00">sqlite3InitCallback</text>
</g>
<!-- 1&#45;&gt;10 -->
<g id="edge11" class="edge">
<title>1&#45;&gt;10</title>
<path fill="none" stroke="black" d="M337.42,-792.41C345.15,-783.82 354.75,-773.16 363.33,-763.63"/>
<polygon fill="black" stroke="black" points="366.14,-765.73 370.23,-755.96 360.94,-761.05 366.14,-765.73"/>
</g>
<!-- 3 -->
<g id="node4" class="node">
<title>3</title>
<ellipse fill="none" stroke="black" cx="162.49" cy="-666" rx="88.28" ry="18"/>
<text text-anchor="middle" x="162.49" y="-662.3" font-family="Times,serif" font-size="14.00">sqlite3VdbeExec</text>
</g>
<!-- 2&#45;&gt;3 -->
<g id="edge6" class="edge">
<title>2&#45;&gt;3</title>
<path fill="none" stroke="black" d="M163.24,-719.7C163.13,-711.98 163,-702.71 162.88,-694.11"/>
<polygon fill="black" stroke="black" points="166.38,-694.05 162.73,-684.1 159.38,-694.15 166.38,-694.05"/>
</g>
<!-- 3&#45;&gt;1 -->
<g id="edge10" class="edge">
<title>3&#45;&gt;1</title>
<path fill="none" stroke="black" d="M189.19,-683.33C204.51,-693.19 223.76,-706.44 239.49,-720 262.63,-739.95 286.11,-765.76 302.16,-784.44"/>
<polygon fill="black" stroke="black" points="299.63,-786.87 308.78,-792.23 304.97,-782.34 299.63,-786.87"/>
</g>
<!-- 4 -->
<g id="node5" class="node">
<title>4</title>
<ellipse fill="none" stroke="black" cx="136.49" cy="-594" rx="121.58" ry="18"/>
<text text-anchor="middle" x="136.49" y="-590.3" font-family="Times,serif" font-size="14.00">sqlite3BtreeBeginTrans</text>
</g>
<!-- 3&#45;&gt;4 -->
<g id="edge3" class="edge">
<title>3&#45;&gt;4</title>
<path fill="none" stroke="black" d="M156.06,-647.7C153.14,-639.81 149.6,-630.3 146.35,-621.55"/>
<polygon fill="black" stroke="black" points="149.61,-620.26 142.84,-612.1 143.04,-622.7 149.61,-620.26"/>
</g>
<!-- 5 -->
<g id="node6" class="node">
<title>5</title>
<ellipse fill="none" stroke="black" cx="110.49" cy="-522" rx="110.48" ry="18"/>
<text text-anchor="middle" x="110.49" y="-518.3" font-family="Times,serif" font-size="14.00">sqlite3PagerOpenWal</text>
</g>
<!-- 4&#45;&gt;5 -->
<g id="edge4" class="edge">
<title>4&#45;&gt;5</title>
<path fill="none" stroke="black" d="M130.06,-575.7C127.14,-567.81 123.6,-558.3 120.35,-549.55"/>
<polygon fill="black" stroke="black" points="123.61,-548.26 116.84,-540.1 117.04,-550.7 123.61,-548.26"/>
</g>
<!-- 6 -->
<g id="node7" class="node">
<title>6</title>
<ellipse fill="none" stroke="black" cx="403.49" cy="-954" rx="83.39" ry="18"/>
<text text-anchor="middle" x="403.49" y="-950.3" font-family="Times,serif" font-size="14.00">benchmark_run</text>
</g>
<!-- 6&#45;&gt;0 -->
<g id="edge5" class="edge">
<title>6&#45;&gt;0</title>
<path fill="none" stroke="black" d="M403.49,-935.7C403.49,-927.98 403.49,-918.71 403.49,-910.11"/>
<polygon fill="black" stroke="black" points="406.99,-910.1 403.49,-900.1 399.99,-910.1 406.99,-910.1"/>
</g>
<!-- 8 -->
<g id="node9" class="node">
<title>8</title>
<ellipse fill="none" stroke="black" cx="562.49" cy="-450" rx="83.39" ry="18"/>
<text text-anchor="middle" x="562.49" y="-446.3" font-family="Times,serif" font-size="14.00">setupLookaside</text>
</g>
<!-- 7&#45;&gt;8 -->
<g id="edge8" class="edge">
<title>7&#45;&gt;8</title>
<path fill="none" stroke="black" d="M531.58,-791.95C543.27,-765.72 563.49,-713.61 563.49,-667 563.49,-667 563.49,-667 563.49,-593 563.49,-553 563.09,-506.65 562.79,-478.08"/>
<polygon fill="black" stroke="black" points="566.29,-478.01 562.69,-468.05 559.29,-478.09 566.29,-478.01"/>
</g>
<!-- 9 -->
<g id="node10" class="node">
<title>9</title>
<ellipse fill="none" stroke="black" cx="481.49" cy="-18" rx="73.39" ry="18"/>
<text text-anchor="middle" x="481.49" y="-14.3" font-family="Times,serif" font-size="14.00">sqlite3Malloc</text>
</g>
<!-- 8&#45;&gt;9 -->
<g id="edge9" class="edge">
<title>8&#45;&gt;9</title>
<path fill="none" stroke="black" d="M560.32,-431.98C557.11,-405.37 551.49,-352.25 551.49,-307 551.49,-307 551.49,-307 551.49,-161 551.49,-120.03 546.74,-108.17 527.49,-72 521.97,-61.62 514.08,-51.54 506.38,-43.01"/>
<polygon fill="black" stroke="black" points="508.85,-40.52 499.45,-35.64 503.75,-45.32 508.85,-40.52"/>
</g>
<!-- 11 -->
<g id="node12" class="node">
<title>11</title>
<ellipse fill="none" stroke="black" cx="387.49" cy="-666" rx="118.88" ry="18"/>
<text text-anchor="middle" x="387.49" y="-662.3" font-family="Times,serif" font-size="14.00">sqlite3LockAndPrepare</text>
</g>
<!-- 10&#45;&gt;11 -->
<g id="edge12" class="edge">
<title>10&#45;&gt;11</title>
<path fill="none" stroke="black" d="M385.98,-719.7C386.2,-711.98 386.47,-702.71 386.72,-694.11"/>
<polygon fill="black" stroke="black" points="390.21,-694.2 387,-684.1 383.22,-694 390.21,-694.2"/>
</g>
<!-- 12 -->
<g id="node13" class="node">
<title>12</title>
<ellipse fill="none" stroke="black" cx="387.49" cy="-594" rx="79.09" ry="18"/>
<text text-anchor="middle" x="387.49" y="-590.3" font-family="Times,serif" font-size="14.00">sqlite3Prepare</text>
</g>
<!-- 11&#45;&gt;12 -->
<g id="edge13" class="edge">
<title>11&#45;&gt;12</title>
<path fill="none" stroke="black" d="M387.49,-647.7C387.49,-639.98 387.49,-630.71 387.49,-622.11"/>
<polygon fill="black" stroke="black" points="390.99,-622.1 387.49,-612.1 383.99,-622.1 390.99,-622.1"/>
</g>
<!-- 13 -->
<g id="node14" class="node">
<title>13</title>
<ellipse fill="none" stroke="black" cx="387.49" cy="-522" rx="148.37" ry="18"/>
<text text-anchor="middle" x="387.49" y="-518.3" font-family="Times,serif" font-size="14.00">sqlite3RunParser.constprop.0</text>
</g>
<!-- 12&#45;&gt;13 -->
<g id="edge14" class="edge">
<title>12&#45;&gt;13</title>
<path fill="none" stroke="black" d="M387.49,-575.7C387.49,-567.98 387.49,-558.71 387.49,-550.11"/>
<polygon fill="black" stroke="black" points="390.99,-550.1 387.49,-540.1 383.99,-550.1 390.99,-550.1"/>
</g>
<!-- 14 -->
<g id="node15" class="node">
<title>14</title>
<ellipse fill="none" stroke="black" cx="388.49" cy="-450" rx="72.59" ry="18"/>
<text text-anchor="middle" x="388.49" y="-446.3" font-family="Times,serif" font-size="14.00">sqlite3Parser</text>
</g>
<!-- 13&#45;&gt;14 -->
<g id="edge15" class="edge">
<title>13&#45;&gt;14</title>
<path fill="none" stroke="black" d="M387.74,-503.7C387.85,-495.98 387.98,-486.71 388.1,-478.11"/>
<polygon fill="black" stroke="black" points="391.6,-478.15 388.25,-468.1 384.6,-478.05 391.6,-478.15"/>
</g>
<!-- 15 -->
<g id="node16" class="node">
<title>15</title>
<ellipse fill="none" stroke="black" cx="409.49" cy="-378" rx="103.98" ry="18"/>
<text text-anchor="middle" x="409.49" y="-374.3" font-family="Times,serif" font-size="14.00">sqlite3FinishCoding</text>
</g>
<!-- 14&#45;&gt;15 -->
<g id="edge16" class="edge">
<title>14&#45;&gt;15</title>
<path fill="none" stroke="black" d="M393.68,-431.7C396.02,-423.9 398.84,-414.51 401.44,-405.83"/>
<polygon fill="black" stroke="black" points="404.84,-406.69 404.36,-396.1 398.13,-404.68 404.84,-406.69"/>
</g>
<!-- 16 -->
<g id="node17" class="node">
<title>16</title>
<ellipse fill="none" stroke="black" cx="409.49" cy="-306" rx="96.68" ry="18"/>
<text text-anchor="middle" x="409.49" y="-302.3" font-family="Times,serif" font-size="14.00">sqlite3VdbeCreate</text>
</g>
<!-- 15&#45;&gt;16 -->
<g id="edge17" class="edge">
<title>15&#45;&gt;16</title>
<path fill="none" stroke="black" d="M409.49,-359.7C409.49,-351.98 409.49,-342.71 409.49,-334.11"/>
<polygon fill="black" stroke="black" points="412.99,-334.1 409.49,-324.1 405.99,-334.1 412.99,-334.1"/>
</g>
<!-- 17 -->
<g id="node18" class="node">
<title>17</title>
<ellipse fill="none" stroke="black" cx="409.49" cy="-234" rx="53.09" ry="18"/>
<text text-anchor="middle" x="409.49" y="-230.3" font-family="Times,serif" font-size="14.00">growOp3</text>
</g>
<!-- 16&#45;&gt;17 -->
<g id="edge18" class="edge">
<title>16&#45;&gt;17</title>
<path fill="none" stroke="black" d="M409.49,-287.7C409.49,-279.98 409.49,-270.71 409.49,-262.11"/>
<polygon fill="black" stroke="black" points="412.99,-262.1 409.49,-252.1 405.99,-262.1 412.99,-262.1"/>
</g>
<!-- 18 -->
<g id="node19" class="node">
<title>18</title>
<ellipse fill="none" stroke="black" cx="410.49" cy="-162" rx="100.98" ry="18"/>
<text text-anchor="middle" x="410.49" y="-158.3" font-family="Times,serif" font-size="14.00">growOpArray.isra.0</text>
</g>
<!-- 17&#45;&gt;18 -->
<g id="edge19" class="edge">
<title>17&#45;&gt;18</title>
<path fill="none" stroke="black" d="M409.74,-215.7C409.85,-207.98 409.98,-198.71 410.1,-190.11"/>
<polygon fill="black" stroke="black" points="413.6,-190.15 410.25,-180.1 406.6,-190.05 413.6,-190.15"/>
</g>
<!-- 19 -->
<g id="node20" class="node">
<title>19</title>
<ellipse fill="none" stroke="black" cx="416.49" cy="-90" rx="102.08" ry="18"/>
<text text-anchor="middle" x="416.49" y="-86.3" font-family="Times,serif" font-size="14.00">dbMallocRawFinish</text>
</g>
<!-- 18&#45;&gt;19 -->
<g id="edge20" class="edge">
<title>18&#45;&gt;19</title>
<path fill="none" stroke="black" d="M411.97,-143.7C412.63,-135.98 413.43,-126.71 414.17,-118.11"/>
<polygon fill="black" stroke="black" points="417.66,-118.37 415.02,-108.1 410.68,-117.77 417.66,-118.37"/>
</g>
<!-- 19&#45;&gt;9 -->
<g id="edge21" class="edge">
<title>19&#45;&gt;9</title>
<path fill="none" stroke="black" d="M432.22,-72.05C440.21,-63.46 450.05,-52.86 458.84,-43.4"/>
<polygon fill="black" stroke="black" points="461.66,-45.5 465.9,-35.79 456.53,-40.74 461.66,-45.5"/>
</g>
</g>
</svg>
