<?xml version="1.0" encoding="UTF-8" standalone="no"?>
<!DOCTYPE svg PUBLIC "-//W3C//DTD SVG 1.1//EN"
 "http://www.w3.org/Graphics/SVG/1.1/DTD/svg11.dtd">
<!-- Generated by graphviz version 2.42.4 (0)
 -->
<!-- Pages: 1 -->
<svg width="251pt" height="764pt"
 viewBox="0.00 0.00 251.08 764.00" xmlns="http://www.w3.org/2000/svg" xmlns:xlink="http://www.w3.org/1999/xlink">
<g id="graph0" class="graph" transform="scale(1 1) rotate(0) translate(4 760)">
<polygon fill="white" stroke="transparent" points="-4,4 -4,-760 247.08,-760 247.08,4 -4,4"/>
<!-- 0 -->
<g id="node1" class="node">
<title>0</title>
<ellipse fill="none" stroke="black" cx="121.54" cy="-738" rx="37.89" ry="18"/>
<text text-anchor="middle" x="121.54" y="-734.3" font-family="Times,serif" font-size="14.00">_start</text>
</g>
<!-- 1 -->
<g id="node2" class="node">
<title>1</title>
<ellipse fill="none" stroke="black" cx="121.54" cy="-666" rx="115.08" ry="18"/>
<text text-anchor="middle" x="121.54" y="-662.3" font-family="Times,serif" font-size="14.00">__libc_start_main_impl</text>
</g>
<!-- 0&#45;&gt;1 -->
<g id="edge1" class="edge">
<title>0&#45;&gt;1</title>
<path fill="none" stroke="black" d="M121.54,-719.7C121.54,-711.98 121.54,-702.71 121.54,-694.11"/>
<polygon fill="black" stroke="black" points="125.04,-694.1 121.54,-684.1 118.04,-694.1 125.04,-694.1"/>
</g>
<!-- 2 -->
<g id="node3" class="node">
<title>2</title>
<ellipse fill="none" stroke="black" cx="121.54" cy="-594" rx="110.48" ry="18"/>
<text text-anchor="middle" x="121.54" y="-590.3" font-family="Times,serif" font-size="14.00">__libc_start_call_main</text>
</g>
<!-- 1&#45;&gt;2 -->
<g id="edge2" class="edge">
<title>1&#45;&gt;2</title>
<path fill="none" stroke="black" d="M121.54,-647.7C121.54,-639.98 121.54,-630.71 121.54,-622.11"/>
<polygon fill="black" stroke="black" points="125.04,-622.1 121.54,-612.1 118.04,-622.1 125.04,-622.1"/>
</g>
<!-- 3 -->
<g id="node4" class="node">
<title>3</title>
<ellipse fill="none" stroke="black" cx="121.54" cy="-522" rx="33.6" ry="18"/>
<text text-anchor="middle" x="121.54" y="-518.3" font-family="Times,serif" font-size="14.00">main</text>
</g>
<!-- 2&#45;&gt;3 -->
<g id="edge3" class="edge">
<title>2&#45;&gt;3</title>
<path fill="none" stroke="black" d="M121.54,-575.7C121.54,-567.98 121.54,-558.71 121.54,-550.11"/>
<polygon fill="black" stroke="black" points="125.04,-550.1 121.54,-540.1 118.04,-550.1 125.04,-550.1"/>
</g>
<!-- 4 -->
<g id="node5" class="node">
<title>4</title>
<ellipse fill="none" stroke="black" cx="121.54" cy="-450" rx="83.39" ry="18"/>
<text text-anchor="middle" x="121.54" y="-446.3" font-family="Times,serif" font-size="14.00">benchmark_run</text>
</g>
<!-- 3&#45;&gt;4 -->
<g id="edge4" class="edge">
<title>3&#45;&gt;4</title>
<path fill="none" stroke="black" d="M121.54,-503.7C121.54,-495.98 121.54,-486.71 121.54,-478.11"/>
<polygon fill="black" stroke="black" points="125.04,-478.1 121.54,-468.1 118.04,-478.1 125.04,-478.1"/>
</g>
<!-- 5 -->
<g id="node6" class="node">
<title>5</title>
<ellipse fill="none" stroke="black" cx="121.54" cy="-378" rx="89.08" ry="18"/>
<text text-anchor="middle" x="121.54" y="-374.3" font-family="Times,serif" font-size="14.00">benchmark_open</text>
</g>
<!-- 4&#45;&gt;5 -->
<g id="edge5" class="edge">
<title>4&#45;&gt;5</title>
<path fill="none" stroke="black" d="M121.54,-431.7C121.54,-423.98 121.54,-414.71 121.54,-406.11"/>
<polygon fill="black" stroke="black" points="125.04,-406.1 121.54,-396.1 118.04,-406.1 125.04,-406.1"/>
</g>
<!-- 6 -->
<g id="node7" class="node">
<title>6</title>
<ellipse fill="none" stroke="black" cx="121.54" cy="-306" rx="67.69" ry="18"/>
<text text-anchor="middle" x="121.54" y="-302.3" font-family="Times,serif" font-size="14.00">sqlite3_exec</text>
</g>
<!-- 5&#45;&gt;6 -->
<g id="edge6" class="edge">
<title>5&#45;&gt;6</title>
<path fill="none" stroke="black" d="M121.54,-359.7C121.54,-351.98 121.54,-342.71 121.54,-334.11"/>
<polygon fill="black" stroke="black" points="125.04,-334.1 121.54,-324.1 118.04,-334.1 125.04,-334.1"/>
</g>
<!-- 7 -->
<g id="node8" class="node">
<title>7</title>
<ellipse fill="none" stroke="black" cx="121.54" cy="-234" rx="66.89" ry="18"/>
<text text-anchor="middle" x="121.54" y="-230.3" font-family="Times,serif" font-size="14.00">sqlite3_step</text>
</g>
<!-- 6&#45;&gt;7 -->
<g id="edge7" class="edge">
<title>6&#45;&gt;7</title>
<path fill="none" stroke="black" d="M121.54,-287.7C121.54,-279.98 121.54,-270.71 121.54,-262.11"/>
<polygon fill="black" stroke="black" points="125.04,-262.1 121.54,-252.1 118.04,-262.1 125.04,-262.1"/>
</g>
<!-- 8 -->
<g id="node9" class="node">
<title>8</title>
<ellipse fill="none" stroke="black" cx="121.54" cy="-162" rx="88.28" ry="18"/>
<text text-anchor="middle" x="121.54" y="-158.3" font-family="Times,serif" font-size="14.00">sqlite3VdbeExec</text>
</g>
<!-- 7&#45;&gt;8 -->
<g id="edge8" class="edge">
<title>7&#45;&gt;8</title>
<path fill="none" stroke="black" d="M121.54,-215.7C121.54,-207.98 121.54,-198.71 121.54,-190.11"/>
<polygon fill="black" stroke="black" points="125.04,-190.1 121.54,-180.1 118.04,-190.1 125.04,-190.1"/>
</g>
<!-- 9 -->
<g id="node10" class="node">
<title>9</title>
<ellipse fill="none" stroke="black" cx="121.54" cy="-90" rx="121.58" ry="18"/>
<text text-anchor="middle" x="121.54" y="-86.3" font-family="Times,serif" font-size="14.00">sqlite3BtreeBeginTrans</text>
</g>
<!-- 8&#45;&gt;9 -->
<g id="edge9" class="edge">
<title>8&#45;&gt;9</title>
<path fill="none" stroke="black" d="M121.54,-143.7C121.54,-135.98 121.54,-126.71 121.54,-118.11"/>
<polygon fill="black" stroke="black" points="125.04,-118.1 121.54,-108.1 118.04,-118.1 125.04,-118.1"/>
</g>
<!-- 10 -->
<g id="node11" class="node">
<title>10</title>
<ellipse fill="none" stroke="black" cx="121.54" cy="-18" rx="110.48" ry="18"/>
<text text-anchor="middle" x="121.54" y="-14.3" font-family="Times,serif" font-size="14.00">sqlite3PagerOpenWal</text>
</g>
<!-- 9&#45;&gt;10 -->
<g id="edge10" class="edge">
<title>9&#45;&gt;10</title>
<path fill="none" stroke="black" d="M121.54,-71.7C121.54,-63.98 121.54,-54.71 121.54,-46.11"/>
<polygon fill="black" stroke="black" points="125.04,-46.1 121.54,-36.1 118.04,-46.1 125.04,-46.1"/>
</g>
</g>
</svg>
