<?xml version="1.0" encoding="UTF-8" standalone="no"?>
<!DOCTYPE svg PUBLIC "-//W3C//DTD SVG 1.1//EN"
 "http://www.w3.org/Graphics/SVG/1.1/DTD/svg11.dtd">
<!-- Generated by graphviz version 2.42.4 (0)
 -->
<!-- Pages: 1 -->
<svg width="1170pt" height="1700pt"
 viewBox="0.00 0.00 1169.63 1700.00" xmlns="http://www.w3.org/2000/svg" xmlns:xlink="http://www.w3.org/1999/xlink">
<g id="graph0" class="graph" transform="scale(1 1) rotate(0) translate(4 1696)">
<polygon fill="white" stroke="transparent" points="-4,4 -4,-1696 1165.63,-1696 1165.63,4 -4,4"/>
<!-- 0 -->
<g id="node1" class="node">
<title>0</title>
<ellipse fill="none" stroke="black" cx="857.44" cy="-1674" rx="37.89" ry="18"/>
<text text-anchor="middle" x="857.44" y="-1670.3" font-family="Times,serif" font-size="14.00">_start</text>
</g>
<!-- 1 -->
<g id="node2" class="node">
<title>1</title>
<ellipse fill="none" stroke="black" cx="857.44" cy="-1602" rx="115.08" ry="18"/>
<text text-anchor="middle" x="857.44" y="-1598.3" font-family="Times,serif" font-size="14.00">__libc_start_main_impl</text>
</g>
<!-- 0&#45;&gt;1 -->
<g id="edge1" class="edge">
<title>0&#45;&gt;1</title>
<path fill="none" stroke="black" d="M857.44,-1655.7C857.44,-1647.98 857.44,-1638.71 857.44,-1630.11"/>
<polygon fill="black" stroke="black" points="860.94,-1630.1 857.44,-1620.1 853.94,-1630.1 860.94,-1630.1"/>
</g>
<!-- 2 -->
<g id="node3" class="node">
<title>2</title>
<ellipse fill="none" stroke="black" cx="857.44" cy="-1530" rx="110.48" ry="18"/>
<text text-anchor="middle" x="857.44" y="-1526.3" font-family="Times,serif" font-size="14.00">__libc_start_call_main</text>
</g>
<!-- 1&#45;&gt;2 -->
<g id="edge2" class="edge">
<title>1&#45;&gt;2</title>
<path fill="none" stroke="black" d="M857.44,-1583.7C857.44,-1575.98 857.44,-1566.71 857.44,-1558.11"/>
<polygon fill="black" stroke="black" points="860.94,-1558.1 857.44,-1548.1 853.94,-1558.1 860.94,-1558.1"/>
</g>
<!-- 3 -->
<g id="node4" class="node">
<title>3</title>
<ellipse fill="none" stroke="black" cx="857.44" cy="-1458" rx="33.6" ry="18"/>
<text text-anchor="middle" x="857.44" y="-1454.3" font-family="Times,serif" font-size="14.00">main</text>
</g>
<!-- 2&#45;&gt;3 -->
<g id="edge3" class="edge">
<title>2&#45;&gt;3</title>
<path fill="none" stroke="black" d="M857.44,-1511.7C857.44,-1503.98 857.44,-1494.71 857.44,-1486.11"/>
<polygon fill="black" stroke="black" points="860.94,-1486.1 857.44,-1476.1 853.94,-1486.1 860.94,-1486.1"/>
</g>
<!-- 4 -->
<g id="node5" class="node">
<title>4</title>
<ellipse fill="none" stroke="black" cx="857.44" cy="-1386" rx="83.39" ry="18"/>
<text text-anchor="middle" x="857.44" y="-1382.3" font-family="Times,serif" font-size="14.00">benchmark_run</text>
</g>
<!-- 3&#45;&gt;4 -->
<g id="edge4" class="edge">
<title>3&#45;&gt;4</title>
<path fill="none" stroke="black" d="M857.44,-1439.7C857.44,-1431.98 857.44,-1422.71 857.44,-1414.11"/>
<polygon fill="black" stroke="black" points="860.94,-1414.1 857.44,-1404.1 853.94,-1414.1 860.94,-1414.1"/>
</g>
<!-- 5 -->
<g id="node6" class="node">
<title>5</title>
<ellipse fill="none" stroke="black" cx="857.44" cy="-1314" rx="89.08" ry="18"/>
<text text-anchor="middle" x="857.44" y="-1310.3" font-family="Times,serif" font-size="14.00">benchmark_open</text>
</g>
<!-- 4&#45;&gt;5 -->
<g id="edge5" class="edge">
<title>4&#45;&gt;5</title>
<path fill="none" stroke="black" d="M857.44,-1367.7C857.44,-1359.98 857.44,-1350.71 857.44,-1342.11"/>
<polygon fill="black" stroke="black" points="860.94,-1342.1 857.44,-1332.1 853.94,-1342.1 860.94,-1342.1"/>
</g>
<!-- 6 -->
<g id="node7" class="node">
<title>6</title>
<ellipse fill="none" stroke="black" cx="776.44" cy="-1242" rx="67.69" ry="18"/>
<text text-anchor="middle" x="776.44" y="-1238.3" font-family="Times,serif" font-size="14.00">sqlite3_exec</text>
</g>
<!-- 5&#45;&gt;6 -->
<g id="edge6" class="edge">
<title>5&#45;&gt;6</title>
<path fill="none" stroke="black" d="M838.24,-1296.41C827.75,-1287.34 814.59,-1275.97 803.12,-1266.06"/>
<polygon fill="black" stroke="black" points="805.35,-1263.36 795.5,-1259.47 800.77,-1268.66 805.35,-1263.36"/>
</g>
<!-- 25 -->
<g id="node26" class="node">
<title>25</title>
<ellipse fill="none" stroke="black" cx="960.44" cy="-1242" rx="76.89" ry="18"/>
<text text-anchor="middle" x="960.44" y="-1238.3" font-family="Times,serif" font-size="14.00">openDatabase</text>
</g>
<!-- 5&#45;&gt;25 -->
<g id="edge25" class="edge">
<title>5&#45;&gt;25</title>
<path fill="none" stroke="black" d="M881.59,-1296.59C895.41,-1287.2 912.92,-1275.29 927.94,-1265.09"/>
<polygon fill="black" stroke="black" points="930.14,-1267.82 936.44,-1259.31 926.2,-1262.04 930.14,-1267.82"/>
</g>
<!-- 7 -->
<g id="node8" class="node">
<title>7</title>
<ellipse fill="none" stroke="black" cx="635.44" cy="-1170" rx="66.89" ry="18"/>
<text text-anchor="middle" x="635.44" y="-1166.3" font-family="Times,serif" font-size="14.00">sqlite3_step</text>
</g>
<!-- 6&#45;&gt;7 -->
<g id="edge7" class="edge">
<title>6&#45;&gt;7</title>
<path fill="none" stroke="black" d="M745.84,-1225.81C725.15,-1215.54 697.62,-1201.87 675.22,-1190.75"/>
<polygon fill="black" stroke="black" points="676.49,-1187.47 665.97,-1186.16 673.37,-1193.74 676.49,-1187.47"/>
</g>
<!-- 34 -->
<g id="node35" class="node">
<title>34</title>
<ellipse fill="none" stroke="black" cx="857.44" cy="-1170" rx="98.28" ry="18"/>
<text text-anchor="middle" x="857.44" y="-1166.3" font-family="Times,serif" font-size="14.00">sqlite3InitCallback</text>
</g>
<!-- 6&#45;&gt;34 -->
<g id="edge35" class="edge">
<title>6&#45;&gt;34</title>
<path fill="none" stroke="black" d="M795.63,-1224.41C806.05,-1215.41 819.09,-1204.14 830.51,-1194.27"/>
<polygon fill="black" stroke="black" points="832.82,-1196.9 838.1,-1187.71 828.25,-1191.6 832.82,-1196.9"/>
</g>
<!-- 8 -->
<g id="node9" class="node">
<title>8</title>
<ellipse fill="none" stroke="black" cx="633.44" cy="-1098" rx="88.28" ry="18"/>
<text text-anchor="middle" x="633.44" y="-1094.3" font-family="Times,serif" font-size="14.00">sqlite3VdbeExec</text>
</g>
<!-- 7&#45;&gt;8 -->
<g id="edge8" class="edge">
<title>7&#45;&gt;8</title>
<path fill="none" stroke="black" d="M634.94,-1151.7C634.72,-1143.98 634.46,-1134.71 634.21,-1126.11"/>
<polygon fill="black" stroke="black" points="637.71,-1126 633.93,-1116.1 630.71,-1126.2 637.71,-1126"/>
</g>
<!-- 8&#45;&gt;6 -->
<g id="edge34" class="edge">
<title>8&#45;&gt;6</title>
<path fill="none" stroke="black" d="M662.25,-1115.26C677.78,-1124.81 696.72,-1137.78 711.44,-1152 731.06,-1170.97 749,-1196.43 761.04,-1215.27"/>
<polygon fill="black" stroke="black" points="758.18,-1217.3 766.45,-1223.92 764.12,-1213.59 758.18,-1217.3"/>
</g>
<!-- 9 -->
<g id="node10" class="node">
<title>9</title>
<ellipse fill="none" stroke="black" cx="629.44" cy="-1026" rx="121.58" ry="18"/>
<text text-anchor="middle" x="629.44" y="-1022.3" font-family="Times,serif" font-size="14.00">sqlite3BtreeBeginTrans</text>
</g>
<!-- 8&#45;&gt;9 -->
<g id="edge9" class="edge">
<title>8&#45;&gt;9</title>
<path fill="none" stroke="black" d="M632.45,-1079.7C632.01,-1071.98 631.48,-1062.71 630.99,-1054.11"/>
<polygon fill="black" stroke="black" points="634.48,-1053.89 630.42,-1044.1 627.49,-1054.29 634.48,-1053.89"/>
</g>
<!-- 10 -->
<g id="node11" class="node">
<title>10</title>
<ellipse fill="none" stroke="black" cx="625.44" cy="-954" rx="110.48" ry="18"/>
<text text-anchor="middle" x="625.44" y="-950.3" font-family="Times,serif" font-size="14.00">sqlite3PagerOpenWal</text>
</g>
<!-- 9&#45;&gt;10 -->
<g id="edge10" class="edge">
<title>9&#45;&gt;10</title>
<path fill="none" stroke="black" d="M628.45,-1007.7C628.01,-999.98 627.48,-990.71 626.99,-982.11"/>
<polygon fill="black" stroke="black" points="630.48,-981.89 626.42,-972.1 623.49,-982.29 630.48,-981.89"/>
</g>
<!-- 11 -->
<g id="node12" class="node">
<title>11</title>
<ellipse fill="none" stroke="black" cx="625.44" cy="-882" rx="79.09" ry="18"/>
<text text-anchor="middle" x="625.44" y="-878.3" font-family="Times,serif" font-size="14.00">pagerOpenWal</text>
</g>
<!-- 10&#45;&gt;11 -->
<g id="edge11" class="edge">
<title>10&#45;&gt;11</title>
<path fill="none" stroke="black" d="M625.44,-935.7C625.44,-927.98 625.44,-918.71 625.44,-910.11"/>
<polygon fill="black" stroke="black" points="628.94,-910.1 625.44,-900.1 621.94,-910.1 628.94,-910.1"/>
</g>
<!-- 12 -->
<g id="node13" class="node">
<title>12</title>
<ellipse fill="none" stroke="black" cx="434.44" cy="-810" rx="55.49" ry="18"/>
<text text-anchor="middle" x="434.44" y="-806.3" font-family="Times,serif" font-size="14.00">unixOpen</text>
</g>
<!-- 11&#45;&gt;12 -->
<g id="edge12" class="edge">
<title>11&#45;&gt;12</title>
<path fill="none" stroke="black" d="M585.4,-866.33C554.37,-854.95 511.39,-839.2 479.22,-827.41"/>
<polygon fill="black" stroke="black" points="480.2,-824.04 469.61,-823.89 477.79,-830.62 480.2,-824.04"/>
</g>
<!-- 20 -->
<g id="node21" class="node">
<title>20</title>
<ellipse fill="none" stroke="black" cx="633.44" cy="-810" rx="72.29" ry="18"/>
<text text-anchor="middle" x="633.44" y="-806.3" font-family="Times,serif" font-size="14.00">pagerLockDb</text>
</g>
<!-- 11&#45;&gt;20 -->
<g id="edge20" class="edge">
<title>11&#45;&gt;20</title>
<path fill="none" stroke="black" d="M627.42,-863.7C628.3,-855.98 629.36,-846.71 630.34,-838.11"/>
<polygon fill="black" stroke="black" points="633.83,-838.44 631.48,-828.1 626.87,-837.64 633.83,-838.44"/>
</g>
<!-- 13 -->
<g id="node14" class="node">
<title>13</title>
<ellipse fill="none" stroke="black" cx="178.44" cy="-738" rx="67.69" ry="18"/>
<text text-anchor="middle" x="178.44" y="-734.3" font-family="Times,serif" font-size="14.00">robust_open</text>
</g>
<!-- 12&#45;&gt;13 -->
<g id="edge13" class="edge">
<title>12&#45;&gt;13</title>
<path fill="none" stroke="black" d="M393.59,-797.83C350.36,-786.01 281.88,-767.29 233.82,-754.14"/>
<polygon fill="black" stroke="black" points="234.46,-750.69 223.89,-751.43 232.61,-757.44 234.46,-750.69"/>
</g>
<!-- 17 -->
<g id="node18" class="node">
<title>17</title>
<ellipse fill="none" stroke="black" cx="317.44" cy="-738" rx="53.09" ry="18"/>
<text text-anchor="middle" x="317.44" y="-734.3" font-family="Times,serif" font-size="14.00">fstatat64</text>
</g>
<!-- 12&#45;&gt;17 -->
<g id="edge17" class="edge">
<title>12&#45;&gt;17</title>
<path fill="none" stroke="black" d="M409.05,-793.81C392.07,-783.65 369.54,-770.17 351.07,-759.12"/>
<polygon fill="black" stroke="black" points="352.75,-756.05 342.37,-753.92 349.16,-762.06 352.75,-756.05"/>
</g>
<!-- 18 -->
<g id="node19" class="node">
<title>18</title>
<ellipse fill="none" stroke="black" cx="434.44" cy="-738" rx="46.29" ry="18"/>
<text text-anchor="middle" x="434.44" y="-734.3" font-family="Times,serif" font-size="14.00">geteuid</text>
</g>
<!-- 12&#45;&gt;18 -->
<g id="edge18" class="edge">
<title>12&#45;&gt;18</title>
<path fill="none" stroke="black" d="M434.44,-791.7C434.44,-783.98 434.44,-774.71 434.44,-766.11"/>
<polygon fill="black" stroke="black" points="437.94,-766.1 434.44,-756.1 430.94,-766.1 437.94,-766.1"/>
</g>
<!-- 19 -->
<g id="node20" class="node">
<title>19</title>
<ellipse fill="none" stroke="black" cx="538.44" cy="-738" rx="40.09" ry="18"/>
<text text-anchor="middle" x="538.44" y="-734.3" font-family="Times,serif" font-size="14.00">getpid</text>
</g>
<!-- 12&#45;&gt;19 -->
<g id="edge19" class="edge">
<title>12&#45;&gt;19</title>
<path fill="none" stroke="black" d="M457.52,-793.46C472.57,-783.34 492.35,-770.02 508.59,-759.09"/>
<polygon fill="black" stroke="black" points="510.85,-761.79 517.19,-753.3 506.94,-755.98 510.85,-761.79"/>
</g>
<!-- 14 -->
<g id="node15" class="node">
<title>14</title>
<ellipse fill="none" stroke="black" cx="125.44" cy="-666" rx="44.69" ry="18"/>
<text text-anchor="middle" x="125.44" y="-662.3" font-family="Times,serif" font-size="14.00">open64</text>
</g>
<!-- 13&#45;&gt;14 -->
<g id="edge14" class="edge">
<title>13&#45;&gt;14</title>
<path fill="none" stroke="black" d="M165.61,-720.05C159.14,-711.5 151.16,-700.97 144.03,-691.56"/>
<polygon fill="black" stroke="black" points="146.61,-689.17 137.79,-683.31 141.03,-693.39 146.61,-689.17"/>
</g>
<!-- 24 -->
<g id="node25" class="node">
<title>24</title>
<ellipse fill="none" stroke="black" cx="232.44" cy="-666" rx="44.39" ry="18"/>
<text text-anchor="middle" x="232.44" y="-662.3" font-family="Times,serif" font-size="14.00">fstat64</text>
</g>
<!-- 13&#45;&gt;24 -->
<g id="edge24" class="edge">
<title>13&#45;&gt;24</title>
<path fill="none" stroke="black" d="M191.51,-720.05C198.17,-711.42 206.4,-700.76 213.72,-691.27"/>
<polygon fill="black" stroke="black" points="216.52,-693.36 219.86,-683.31 210.98,-689.09 216.52,-693.36"/>
</g>
<!-- 15 -->
<g id="node16" class="node">
<title>15</title>
<ellipse fill="none" stroke="black" cx="125.44" cy="-594" rx="84.49" ry="18"/>
<text text-anchor="middle" x="125.44" y="-590.3" font-family="Times,serif" font-size="14.00">__syscall_cancel</text>
</g>
<!-- 14&#45;&gt;15 -->
<g id="edge15" class="edge">
<title>14&#45;&gt;15</title>
<path fill="none" stroke="black" d="M125.44,-647.7C125.44,-639.98 125.44,-630.71 125.44,-622.11"/>
<polygon fill="black" stroke="black" points="128.94,-622.1 125.44,-612.1 121.94,-622.1 128.94,-622.1"/>
</g>
<!-- 16 -->
<g id="node17" class="node">
<title>16</title>
<ellipse fill="none" stroke="black" cx="125.44" cy="-522" rx="125.38" ry="18"/>
<text text-anchor="middle" x="125.44" y="-518.3" font-family="Times,serif" font-size="14.00">__internal_syscall_cancel</text>
</g>
<!-- 15&#45;&gt;16 -->
<g id="edge16" class="edge">
<title>15&#45;&gt;16</title>
<path fill="none" stroke="black" d="M125.44,-575.7C125.44,-567.98 125.44,-558.71 125.44,-550.11"/>
<polygon fill="black" stroke="black" points="128.94,-550.1 125.44,-540.1 121.94,-550.1 128.94,-550.1"/>
</g>
<!-- 21 -->
<g id="node22" class="node">
<title>21</title>
<ellipse fill="none" stroke="black" cx="648.44" cy="-738" rx="51.99" ry="18"/>
<text text-anchor="middle" x="648.44" y="-734.3" font-family="Times,serif" font-size="14.00">unixLock</text>
</g>
<!-- 20&#45;&gt;21 -->
<g id="edge21" class="edge">
<title>20&#45;&gt;21</title>
<path fill="none" stroke="black" d="M637.15,-791.7C638.8,-783.98 640.79,-774.71 642.63,-766.11"/>
<polygon fill="black" stroke="black" points="646.1,-766.62 644.77,-756.1 639.26,-765.15 646.1,-766.62"/>
</g>
<!-- 22 -->
<g id="node23" class="node">
<title>22</title>
<ellipse fill="none" stroke="black" cx="648.44" cy="-666" rx="43.59" ry="18"/>
<text text-anchor="middle" x="648.44" y="-662.3" font-family="Times,serif" font-size="14.00">fcntl64</text>
</g>
<!-- 21&#45;&gt;22 -->
<g id="edge22" class="edge">
<title>21&#45;&gt;22</title>
<path fill="none" stroke="black" d="M648.44,-719.7C648.44,-711.98 648.44,-702.71 648.44,-694.11"/>
<polygon fill="black" stroke="black" points="651.94,-694.1 648.44,-684.1 644.94,-694.1 651.94,-694.1"/>
</g>
<!-- 23 -->
<g id="node24" class="node">
<title>23</title>
<ellipse fill="none" stroke="black" cx="648.44" cy="-594" rx="141.88" ry="18"/>
<text text-anchor="middle" x="648.44" y="-590.3" font-family="Times,serif" font-size="14.00">__fcntl64_nocancel_adjusted</text>
</g>
<!-- 22&#45;&gt;23 -->
<g id="edge23" class="edge">
<title>22&#45;&gt;23</title>
<path fill="none" stroke="black" d="M648.44,-647.7C648.44,-639.98 648.44,-630.71 648.44,-622.11"/>
<polygon fill="black" stroke="black" points="651.94,-622.1 648.44,-612.1 644.94,-622.1 651.94,-622.1"/>
</g>
<!-- 26 -->
<g id="node27" class="node">
<title>26</title>
<ellipse fill="none" stroke="black" cx="1078.44" cy="-1098" rx="83.39" ry="18"/>
<text text-anchor="middle" x="1078.44" y="-1094.3" font-family="Times,serif" font-size="14.00">setupLookaside</text>
</g>
<!-- 25&#45;&gt;26 -->
<g id="edge26" class="edge">
<title>25&#45;&gt;26</title>
<path fill="none" stroke="black" d="M974.44,-1224.15C995.11,-1199.28 1033.92,-1152.57 1057.84,-1123.79"/>
<polygon fill="black" stroke="black" points="1060.76,-1125.75 1064.46,-1115.82 1055.37,-1121.28 1060.76,-1125.75"/>
</g>
<!-- 27 -->
<g id="node28" class="node">
<title>27</title>
<ellipse fill="none" stroke="black" cx="1012.44" cy="-450" rx="73.39" ry="18"/>
<text text-anchor="middle" x="1012.44" y="-446.3" font-family="Times,serif" font-size="14.00">sqlite3Malloc</text>
</g>
<!-- 26&#45;&gt;27 -->
<g id="edge27" class="edge">
<title>26&#45;&gt;27</title>
<path fill="none" stroke="black" d="M1078.44,-1079.95C1078.44,-1053.29 1078.44,-1000.11 1078.44,-955 1078.44,-955 1078.44,-955 1078.44,-593 1078.44,-552.46 1076.72,-540.18 1058.44,-504 1053.14,-493.51 1045.3,-483.4 1037.59,-474.87"/>
<polygon fill="black" stroke="black" points="1040.04,-472.37 1030.62,-467.52 1034.96,-477.19 1040.04,-472.37"/>
</g>
<!-- 28 -->
<g id="node29" class="node">
<title>28</title>
<ellipse fill="none" stroke="black" cx="1012.44" cy="-378" rx="96.68" ry="18"/>
<text text-anchor="middle" x="1012.44" y="-374.3" font-family="Times,serif" font-size="14.00">sqlite3MemMalloc</text>
</g>
<!-- 27&#45;&gt;28 -->
<g id="edge28" class="edge">
<title>27&#45;&gt;28</title>
<path fill="none" stroke="black" d="M1012.44,-431.7C1012.44,-423.98 1012.44,-414.71 1012.44,-406.11"/>
<polygon fill="black" stroke="black" points="1015.94,-406.1 1012.44,-396.1 1008.94,-406.1 1015.94,-406.1"/>
</g>
<!-- 29 -->
<g id="node30" class="node">
<title>29</title>
<ellipse fill="none" stroke="black" cx="1012.44" cy="-306" rx="40.89" ry="18"/>
<text text-anchor="middle" x="1012.44" y="-302.3" font-family="Times,serif" font-size="14.00">malloc</text>
</g>
<!-- 28&#45;&gt;29 -->
<g id="edge29" class="edge">
<title>28&#45;&gt;29</title>
<path fill="none" stroke="black" d="M1012.44,-359.7C1012.44,-351.98 1012.44,-342.71 1012.44,-334.11"/>
<polygon fill="black" stroke="black" points="1015.94,-334.1 1012.44,-324.1 1008.94,-334.1 1015.94,-334.1"/>
</g>
<!-- 30 -->
<g id="node31" class="node">
<title>30</title>
<ellipse fill="none" stroke="black" cx="1012.44" cy="-234" rx="62.29" ry="18"/>
<text text-anchor="middle" x="1012.44" y="-230.3" font-family="Times,serif" font-size="14.00">_int_malloc</text>
</g>
<!-- 29&#45;&gt;30 -->
<g id="edge30" class="edge">
<title>29&#45;&gt;30</title>
<path fill="none" stroke="black" d="M1012.44,-287.7C1012.44,-279.98 1012.44,-270.71 1012.44,-262.11"/>
<polygon fill="black" stroke="black" points="1015.94,-262.1 1012.44,-252.1 1008.94,-262.1 1015.94,-262.1"/>
</g>
<!-- 31 -->
<g id="node32" class="node">
<title>31</title>
<ellipse fill="none" stroke="black" cx="1012.44" cy="-162" rx="55.79" ry="18"/>
<text text-anchor="middle" x="1012.44" y="-158.3" font-family="Times,serif" font-size="14.00">sysmalloc</text>
</g>
<!-- 30&#45;&gt;31 -->
<g id="edge31" class="edge">
<title>30&#45;&gt;31</title>
<path fill="none" stroke="black" d="M1012.44,-215.7C1012.44,-207.98 1012.44,-198.71 1012.44,-190.11"/>
<polygon fill="black" stroke="black" points="1015.94,-190.1 1012.44,-180.1 1008.94,-190.1 1015.94,-190.1"/>
</g>
<!-- 32 -->
<g id="node33" class="node">
<title>32</title>
<ellipse fill="none" stroke="black" cx="1012.44" cy="-90" rx="31.4" ry="18"/>
<text text-anchor="middle" x="1012.44" y="-86.3" font-family="Times,serif" font-size="14.00">sbrk</text>
</g>
<!-- 31&#45;&gt;32 -->
<g id="edge32" class="edge">
<title>31&#45;&gt;32</title>
<path fill="none" stroke="black" d="M1012.44,-143.7C1012.44,-135.98 1012.44,-126.71 1012.44,-118.11"/>
<polygon fill="black" stroke="black" points="1015.94,-118.1 1012.44,-108.1 1008.94,-118.1 1015.94,-118.1"/>
</g>
<!-- 33 -->
<g id="node34" class="node">
<title>33</title>
<ellipse fill="none" stroke="black" cx="1012.44" cy="-18" rx="27" ry="18"/>
<text text-anchor="middle" x="1012.44" y="-14.3" font-family="Times,serif" font-size="14.00">brk</text>
</g>
<!-- 32&#45;&gt;33 -->
<g id="edge33" class="edge">
<title>32&#45;&gt;33</title>
<path fill="none" stroke="black" d="M1012.44,-71.7C1012.44,-63.98 1012.44,-54.71 1012.44,-46.11"/>
<polygon fill="black" stroke="black" points="1015.94,-46.1 1012.44,-36.1 1008.94,-46.1 1015.94,-46.1"/>
</g>
<!-- 35 -->
<g id="node36" class="node">
<title>35</title>
<ellipse fill="none" stroke="black" cx="858.44" cy="-1098" rx="118.88" ry="18"/>
<text text-anchor="middle" x="858.44" y="-1094.3" font-family="Times,serif" font-size="14.00">sqlite3LockAndPrepare</text>
</g>
<!-- 34&#45;&gt;35 -->
<g id="edge36" class="edge">
<title>34&#45;&gt;35</title>
<path fill="none" stroke="black" d="M857.69,-1151.7C857.8,-1143.98 857.93,-1134.71 858.05,-1126.11"/>
<polygon fill="black" stroke="black" points="861.55,-1126.15 858.19,-1116.1 854.55,-1126.05 861.55,-1126.15"/>
</g>
<!-- 36 -->
<g id="node37" class="node">
<title>36</title>
<ellipse fill="none" stroke="black" cx="880.44" cy="-1026" rx="79.09" ry="18"/>
<text text-anchor="middle" x="880.44" y="-1022.3" font-family="Times,serif" font-size="14.00">sqlite3Prepare</text>
</g>
<!-- 35&#45;&gt;36 -->
<g id="edge37" class="edge">
<title>35&#45;&gt;36</title>
<path fill="none" stroke="black" d="M863.88,-1079.7C866.33,-1071.9 869.28,-1062.51 872.01,-1053.83"/>
<polygon fill="black" stroke="black" points="875.4,-1054.69 875.06,-1044.1 868.73,-1052.59 875.4,-1054.69"/>
</g>
<!-- 37 -->
<g id="node38" class="node">
<title>37</title>
<ellipse fill="none" stroke="black" cx="902.44" cy="-954" rx="148.37" ry="18"/>
<text text-anchor="middle" x="902.44" y="-950.3" font-family="Times,serif" font-size="14.00">sqlite3RunParser.constprop.0</text>
</g>
<!-- 36&#45;&gt;37 -->
<g id="edge38" class="edge">
<title>36&#45;&gt;37</title>
<path fill="none" stroke="black" d="M885.88,-1007.7C888.33,-999.9 891.28,-990.51 894.01,-981.83"/>
<polygon fill="black" stroke="black" points="897.4,-982.69 897.06,-972.1 890.73,-980.59 897.4,-982.69"/>
</g>
<!-- 38 -->
<g id="node39" class="node">
<title>38</title>
<ellipse fill="none" stroke="black" cx="913.44" cy="-882" rx="72.59" ry="18"/>
<text text-anchor="middle" x="913.44" y="-878.3" font-family="Times,serif" font-size="14.00">sqlite3Parser</text>
</g>
<!-- 37&#45;&gt;38 -->
<g id="edge39" class="edge">
<title>37&#45;&gt;38</title>
<path fill="none" stroke="black" d="M905.16,-935.7C906.37,-927.98 907.83,-918.71 909.18,-910.11"/>
<polygon fill="black" stroke="black" points="912.66,-910.53 910.75,-900.1 905.74,-909.44 912.66,-910.53"/>
</g>
<!-- 39 -->
<g id="node40" class="node">
<title>39</title>
<ellipse fill="none" stroke="black" cx="924.44" cy="-810" rx="103.98" ry="18"/>
<text text-anchor="middle" x="924.44" y="-806.3" font-family="Times,serif" font-size="14.00">sqlite3FinishCoding</text>
</g>
<!-- 38&#45;&gt;39 -->
<g id="edge40" class="edge">
<title>38&#45;&gt;39</title>
<path fill="none" stroke="black" d="M916.16,-863.7C917.37,-855.98 918.83,-846.71 920.18,-838.11"/>
<polygon fill="black" stroke="black" points="923.66,-838.53 921.75,-828.1 916.74,-837.44 923.66,-838.53"/>
</g>
<!-- 40 -->
<g id="node41" class="node">
<title>40</title>
<ellipse fill="none" stroke="black" cx="924.44" cy="-738" rx="96.68" ry="18"/>
<text text-anchor="middle" x="924.44" y="-734.3" font-family="Times,serif" font-size="14.00">sqlite3VdbeCreate</text>
</g>
<!-- 39&#45;&gt;40 -->
<g id="edge41" class="edge">
<title>39&#45;&gt;40</title>
<path fill="none" stroke="black" d="M924.44,-791.7C924.44,-783.98 924.44,-774.71 924.44,-766.11"/>
<polygon fill="black" stroke="black" points="927.94,-766.1 924.44,-756.1 920.94,-766.1 927.94,-766.1"/>
</g>
<!-- 41 -->
<g id="node42" class="node">
<title>41</title>
<ellipse fill="none" stroke="black" cx="931.44" cy="-666" rx="53.09" ry="18"/>
<text text-anchor="middle" x="931.44" y="-662.3" font-family="Times,serif" font-size="14.00">growOp3</text>
</g>
<!-- 40&#45;&gt;41 -->
<g id="edge42" class="edge">
<title>40&#45;&gt;41</title>
<path fill="none" stroke="black" d="M926.17,-719.7C926.94,-711.98 927.87,-702.71 928.73,-694.11"/>
<polygon fill="black" stroke="black" points="932.22,-694.4 929.73,-684.1 925.25,-693.71 932.22,-694.4"/>
</g>
<!-- 42 -->
<g id="node43" class="node">
<title>42</title>
<ellipse fill="none" stroke="black" cx="939.44" cy="-594" rx="100.98" ry="18"/>
<text text-anchor="middle" x="939.44" y="-590.3" font-family="Times,serif" font-size="14.00">growOpArray.isra.0</text>
</g>
<!-- 41&#45;&gt;42 -->
<g id="edge43" class="edge">
<title>41&#45;&gt;42</title>
<path fill="none" stroke="black" d="M933.42,-647.7C934.3,-639.98 935.36,-630.71 936.34,-622.11"/>
<polygon fill="black" stroke="black" points="939.83,-622.44 937.48,-612.1 932.87,-621.64 939.83,-622.44"/>
</g>
<!-- 43 -->
<g id="node44" class="node">
<title>43</title>
<ellipse fill="none" stroke="black" cx="947.44" cy="-522" rx="102.08" ry="18"/>
<text text-anchor="middle" x="947.44" y="-518.3" font-family="Times,serif" font-size="14.00">dbMallocRawFinish</text>
</g>
<!-- 42&#45;&gt;43 -->
<g id="edge44" class="edge">
<title>42&#45;&gt;43</title>
<path fill="none" stroke="black" d="M941.42,-575.7C942.3,-567.98 943.36,-558.71 944.34,-550.11"/>
<polygon fill="black" stroke="black" points="947.83,-550.44 945.48,-540.1 940.87,-549.64 947.83,-550.44"/>
</g>
<!-- 43&#45;&gt;27 -->
<g id="edge45" class="edge">
<title>43&#45;&gt;27</title>
<path fill="none" stroke="black" d="M963.17,-504.05C971.16,-495.46 981,-484.86 989.78,-475.4"/>
<polygon fill="black" stroke="black" points="992.61,-477.5 996.85,-467.79 987.48,-472.74 992.61,-477.5"/>
</g>
</g>
</svg>
