<?xml version="1.0" encoding="UTF-8" standalone="no"?>
<!DOCTYPE svg PUBLIC "-//W3C//DTD SVG 1.1//EN"
 "http://www.w3.org/Graphics/SVG/1.1/DTD/svg11.dtd">
<!-- Generated by graphviz version 2.42.4 (0)
 -->
<!-- Pages: 1 -->
<svg width="251pt" height="404pt"
 viewBox="0.00 0.00 251.08 404.00" xmlns="http://www.w3.org/2000/svg" xmlns:xlink="http://www.w3.org/1999/xlink">
<g id="graph0" class="graph" transform="scale(1 1) rotate(0) translate(4 400)">
<polygon fill="white" stroke="transparent" points="-4,4 -4,-400 247.08,-400 247.08,4 -4,4"/>
<!-- 0 -->
<g id="node1" class="node">
<title>0</title>
<ellipse fill="none" stroke="black" cx="121.54" cy="-378" rx="83.39" ry="18"/>
<text text-anchor="middle" x="121.54" y="-374.3" font-family="Times,serif" font-size="14.00">benchmark_run</text>
</g>
<!-- 1 -->
<g id="node2" class="node">
<title>1</title>
<ellipse fill="none" stroke="black" cx="121.54" cy="-306" rx="87.99" ry="18"/>
<text text-anchor="middle" x="121.54" y="-302.3" font-family="Times,serif" font-size="14.00">benchmark_read</text>
</g>
<!-- 0&#45;&gt;1 -->
<g id="edge1" class="edge">
<title>0&#45;&gt;1</title>
<path fill="none" stroke="black" d="M121.54,-359.7C121.54,-351.98 121.54,-342.71 121.54,-334.11"/>
<polygon fill="black" stroke="black" points="125.04,-334.1 121.54,-324.1 118.04,-334.1 125.04,-334.1"/>
</g>
<!-- 2 -->
<g id="node3" class="node">
<title>2</title>
<ellipse fill="none" stroke="black" cx="121.54" cy="-234" rx="66.89" ry="18"/>
<text text-anchor="middle" x="121.54" y="-230.3" font-family="Times,serif" font-size="14.00">sqlite3_step</text>
</g>
<!-- 1&#45;&gt;2 -->
<g id="edge2" class="edge">
<title>1&#45;&gt;2</title>
<path fill="none" stroke="black" d="M121.54,-287.7C121.54,-279.98 121.54,-270.71 121.54,-262.11"/>
<polygon fill="black" stroke="black" points="125.04,-262.1 121.54,-252.1 118.04,-262.1 125.04,-262.1"/>
</g>
<!-- 3 -->
<g id="node4" class="node">
<title>3</title>
<ellipse fill="none" stroke="black" cx="121.54" cy="-162" rx="88.28" ry="18"/>
<text text-anchor="middle" x="121.54" y="-158.3" font-family="Times,serif" font-size="14.00">sqlite3VdbeExec</text>
</g>
<!-- 2&#45;&gt;3 -->
<g id="edge3" class="edge">
<title>2&#45;&gt;3</title>
<path fill="none" stroke="black" d="M121.54,-215.7C121.54,-207.98 121.54,-198.71 121.54,-190.11"/>
<polygon fill="black" stroke="black" points="125.04,-190.1 121.54,-180.1 118.04,-190.1 125.04,-190.1"/>
</g>
<!-- 4 -->
<g id="node5" class="node">
<title>4</title>
<ellipse fill="none" stroke="black" cx="121.54" cy="-90" rx="121.58" ry="18"/>
<text text-anchor="middle" x="121.54" y="-86.3" font-family="Times,serif" font-size="14.00">sqlite3BtreeBeginTrans</text>
</g>
<!-- 3&#45;&gt;4 -->
<g id="edge4" class="edge">
<title>3&#45;&gt;4</title>
<path fill="none" stroke="black" d="M121.54,-143.7C121.54,-135.98 121.54,-126.71 121.54,-118.11"/>
<polygon fill="black" stroke="black" points="125.04,-118.1 121.54,-108.1 118.04,-118.1 125.04,-118.1"/>
</g>
<!-- 5 -->
<g id="node6" class="node">
<title>5</title>
<ellipse fill="none" stroke="black" cx="121.54" cy="-18" rx="110.48" ry="18"/>
<text text-anchor="middle" x="121.54" y="-14.3" font-family="Times,serif" font-size="14.00">sqlite3PagerOpenWal</text>
</g>
<!-- 4&#45;&gt;5 -->
<g id="edge5" class="edge">
<title>4&#45;&gt;5</title>
<path fill="none" stroke="black" d="M121.54,-71.7C121.54,-63.98 121.54,-54.71 121.54,-46.11"/>
<polygon fill="black" stroke="black" points="125.04,-46.1 121.54,-36.1 118.04,-46.1 125.04,-46.1"/>
</g>
</g>
</svg>
