<?xml version="1.0" encoding="UTF-8" standalone="no"?>
<!DOCTYPE svg PUBLIC "-//W3C//DTD SVG 1.1//EN"
 "http://www.w3.org/Graphics/SVG/1.1/DTD/svg11.dtd">
<!-- Generated by graphviz version 2.42.4 (0)
 -->
<!-- Pages: 1 -->
<svg width="622pt" height="548pt"
 viewBox="0.00 0.00 621.93 548.00" xmlns="http://www.w3.org/2000/svg" xmlns:xlink="http://www.w3.org/1999/xlink">
<g id="graph0" class="graph" transform="scale(1 1) rotate(0) translate(4 544)">
<polygon fill="white" stroke="transparent" points="-4,4 -4,-544 617.93,-544 617.93,4 -4,4"/>
<!-- 0 -->
<g id="node1" class="node">
<title>0</title>
<ellipse fill="none" stroke="black" cx="349.49" cy="-522" rx="83.39" ry="18"/>
<text text-anchor="middle" x="349.49" y="-518.3" font-family="Times,serif" font-size="14.00">benchmark_run</text>
</g>
<!-- 1 -->
<g id="node2" class="node">
<title>1</title>
<ellipse fill="none" stroke="black" cx="349.49" cy="-450" rx="87.99" ry="18"/>
<text text-anchor="middle" x="349.49" y="-446.3" font-family="Times,serif" font-size="14.00">benchmark_read</text>
</g>
<!-- 0&#45;&gt;1 -->
<g id="edge1" class="edge">
<title>0&#45;&gt;1</title>
<path fill="none" stroke="black" d="M349.49,-503.7C349.49,-495.98 349.49,-486.71 349.49,-478.11"/>
<polygon fill="black" stroke="black" points="352.99,-478.1 349.49,-468.1 345.99,-478.1 352.99,-478.1"/>
</g>
<!-- 2 -->
<g id="node3" class="node">
<title>2</title>
<ellipse fill="none" stroke="black" cx="349.49" cy="-378" rx="66.89" ry="18"/>
<text text-anchor="middle" x="349.49" y="-374.3" font-family="Times,serif" font-size="14.00">sqlite3_step</text>
</g>
<!-- 1&#45;&gt;2 -->
<g id="edge2" class="edge">
<title>1&#45;&gt;2</title>
<path fill="none" stroke="black" d="M349.49,-431.7C349.49,-423.98 349.49,-414.71 349.49,-406.11"/>
<polygon fill="black" stroke="black" points="352.99,-406.1 349.49,-396.1 345.99,-406.1 352.99,-406.1"/>
</g>
<!-- 3 -->
<g id="node4" class="node">
<title>3</title>
<ellipse fill="none" stroke="black" cx="349.49" cy="-306" rx="88.28" ry="18"/>
<text text-anchor="middle" x="349.49" y="-302.3" font-family="Times,serif" font-size="14.00">sqlite3VdbeExec</text>
</g>
<!-- 2&#45;&gt;3 -->
<g id="edge3" class="edge">
<title>2&#45;&gt;3</title>
<path fill="none" stroke="black" d="M349.49,-359.7C349.49,-351.98 349.49,-342.71 349.49,-334.11"/>
<polygon fill="black" stroke="black" points="352.99,-334.1 349.49,-324.1 345.99,-334.1 352.99,-334.1"/>
</g>
<!-- 4 -->
<g id="node5" class="node">
<title>4</title>
<ellipse fill="none" stroke="black" cx="237.49" cy="-234" rx="121.58" ry="18"/>
<text text-anchor="middle" x="237.49" y="-230.3" font-family="Times,serif" font-size="14.00">sqlite3BtreeBeginTrans</text>
</g>
<!-- 3&#45;&gt;4 -->
<g id="edge4" class="edge">
<title>3&#45;&gt;4</title>
<path fill="none" stroke="black" d="M323.51,-288.76C308.47,-279.36 289.31,-267.39 272.9,-257.13"/>
<polygon fill="black" stroke="black" points="274.44,-253.97 264.1,-251.63 270.73,-259.9 274.44,-253.97"/>
</g>
<!-- 8 -->
<g id="node9" class="node">
<title>8</title>
<ellipse fill="none" stroke="black" cx="462.49" cy="-234" rx="85.59" ry="18"/>
<text text-anchor="middle" x="462.49" y="-230.3" font-family="Times,serif" font-size="14.00">sqlite3VdbeHalt</text>
</g>
<!-- 3&#45;&gt;8 -->
<g id="edge8" class="edge">
<title>3&#45;&gt;8</title>
<path fill="none" stroke="black" d="M375.7,-288.76C390.99,-279.29 410.49,-267.21 427.13,-256.91"/>
<polygon fill="black" stroke="black" points="429.37,-259.63 436.03,-251.39 425.69,-253.68 429.37,-259.63"/>
</g>
<!-- 5 -->
<g id="node6" class="node">
<title>5</title>
<ellipse fill="none" stroke="black" cx="110.49" cy="-162" rx="110.48" ry="18"/>
<text text-anchor="middle" x="110.49" y="-158.3" font-family="Times,serif" font-size="14.00">sqlite3PagerOpenWal</text>
</g>
<!-- 4&#45;&gt;5 -->
<g id="edge5" class="edge">
<title>4&#45;&gt;5</title>
<path fill="none" stroke="black" d="M207.39,-216.41C190,-206.82 167.92,-194.65 149.24,-184.36"/>
<polygon fill="black" stroke="black" points="150.82,-181.23 140.37,-179.47 147.44,-187.36 150.82,-181.23"/>
</g>
<!-- 6 -->
<g id="node7" class="node">
<title>6</title>
<ellipse fill="none" stroke="black" cx="248.49" cy="-90" rx="124.28" ry="18"/>
<text text-anchor="middle" x="248.49" y="-86.3" font-family="Times,serif" font-size="14.00">sqlite3PagerSharedLock</text>
</g>
<!-- 4&#45;&gt;6 -->
<g id="edge6" class="edge">
<title>4&#45;&gt;6</title>
<path fill="none" stroke="black" d="M238.82,-215.87C240.69,-191.67 244.14,-147.21 246.37,-118.39"/>
<polygon fill="black" stroke="black" points="249.88,-118.43 247.16,-108.19 242.9,-117.89 249.88,-118.43"/>
</g>
<!-- 7 -->
<g id="node8" class="node">
<title>7</title>
<ellipse fill="none" stroke="black" cx="355.49" cy="-18" rx="155.97" ry="18"/>
<text text-anchor="middle" x="355.49" y="-14.3" font-family="Times,serif" font-size="14.00">sqlite3WalEndReadTransaction</text>
</g>
<!-- 6&#45;&gt;7 -->
<g id="edge7" class="edge">
<title>6&#45;&gt;7</title>
<path fill="none" stroke="black" d="M274.12,-72.23C288.18,-63.04 305.8,-51.51 321.04,-41.54"/>
<polygon fill="black" stroke="black" points="323.25,-44.28 329.7,-35.87 319.41,-38.42 323.25,-44.28"/>
</g>
<!-- 9 -->
<g id="node10" class="node">
<title>9</title>
<ellipse fill="none" stroke="black" cx="462.49" cy="-162" rx="151.37" ry="18"/>
<text text-anchor="middle" x="462.49" y="-158.3" font-family="Times,serif" font-size="14.00">sqlite3BtreeCommitPhaseTwo</text>
</g>
<!-- 8&#45;&gt;9 -->
<g id="edge9" class="edge">
<title>8&#45;&gt;9</title>
<path fill="none" stroke="black" d="M462.49,-215.7C462.49,-207.98 462.49,-198.71 462.49,-190.11"/>
<polygon fill="black" stroke="black" points="465.99,-190.1 462.49,-180.1 458.99,-190.1 465.99,-190.1"/>
</g>
<!-- 10 -->
<g id="node11" class="node">
<title>10</title>
<ellipse fill="none" stroke="black" cx="462.49" cy="-90" rx="72.29" ry="18"/>
<text text-anchor="middle" x="462.49" y="-86.3" font-family="Times,serif" font-size="14.00">pager_unlock</text>
</g>
<!-- 9&#45;&gt;10 -->
<g id="edge10" class="edge">
<title>9&#45;&gt;10</title>
<path fill="none" stroke="black" d="M462.49,-143.7C462.49,-135.98 462.49,-126.71 462.49,-118.11"/>
<polygon fill="black" stroke="black" points="465.99,-118.1 462.49,-108.1 458.99,-118.1 465.99,-118.1"/>
</g>
<!-- 10&#45;&gt;7 -->
<g id="edge11" class="edge">
<title>10&#45;&gt;7</title>
<path fill="none" stroke="black" d="M437.94,-72.94C423.68,-63.61 405.48,-51.71 389.82,-41.46"/>
<polygon fill="black" stroke="black" points="391.7,-38.51 381.42,-35.96 387.87,-44.36 391.7,-38.51"/>
</g>
</g>
</svg>
